G04 #@! TF.GenerationSoftware,KiCad,Pcbnew,(6.0.7)*
G04 #@! TF.CreationDate,2023-04-04T22:21:52-05:00*
G04 #@! TF.ProjectId,backpackbuddy_system,6261636b-7061-4636-9b62-756464795f73,rev?*
G04 #@! TF.SameCoordinates,Original*
G04 #@! TF.FileFunction,Legend,Top*
G04 #@! TF.FilePolarity,Positive*
%FSLAX46Y46*%
G04 Gerber Fmt 4.6, Leading zero omitted, Abs format (unit mm)*
G04 Created by KiCad (PCBNEW (6.0.7)) date 2023-04-04 22:21:52*
%MOMM*%
%LPD*%
G01*
G04 APERTURE LIST*
%ADD10C,0.150000*%
%ADD11C,0.120000*%
%ADD12R,1.727200X1.727200*%
%ADD13O,1.727200X1.727200*%
G04 APERTURE END LIST*
D10*
X138928571Y-99403571D02*
X139071428Y-99451190D01*
X139119047Y-99498809D01*
X139166666Y-99594047D01*
X139166666Y-99736904D01*
X139119047Y-99832142D01*
X139071428Y-99879761D01*
X138976190Y-99927380D01*
X138595238Y-99927380D01*
X138595238Y-98927380D01*
X138928571Y-98927380D01*
X139023809Y-98975000D01*
X139071428Y-99022619D01*
X139119047Y-99117857D01*
X139119047Y-99213095D01*
X139071428Y-99308333D01*
X139023809Y-99355952D01*
X138928571Y-99403571D01*
X138595238Y-99403571D01*
X140023809Y-99927380D02*
X140023809Y-99403571D01*
X139976190Y-99308333D01*
X139880952Y-99260714D01*
X139690476Y-99260714D01*
X139595238Y-99308333D01*
X140023809Y-99879761D02*
X139928571Y-99927380D01*
X139690476Y-99927380D01*
X139595238Y-99879761D01*
X139547619Y-99784523D01*
X139547619Y-99689285D01*
X139595238Y-99594047D01*
X139690476Y-99546428D01*
X139928571Y-99546428D01*
X140023809Y-99498809D01*
X140928571Y-99879761D02*
X140833333Y-99927380D01*
X140642857Y-99927380D01*
X140547619Y-99879761D01*
X140500000Y-99832142D01*
X140452380Y-99736904D01*
X140452380Y-99451190D01*
X140500000Y-99355952D01*
X140547619Y-99308333D01*
X140642857Y-99260714D01*
X140833333Y-99260714D01*
X140928571Y-99308333D01*
X141357142Y-99927380D02*
X141357142Y-98927380D01*
X141452380Y-99546428D02*
X141738095Y-99927380D01*
X141738095Y-99260714D02*
X141357142Y-99641666D01*
X142166666Y-99260714D02*
X142166666Y-100260714D01*
X142166666Y-99308333D02*
X142261904Y-99260714D01*
X142452380Y-99260714D01*
X142547619Y-99308333D01*
X142595238Y-99355952D01*
X142642857Y-99451190D01*
X142642857Y-99736904D01*
X142595238Y-99832142D01*
X142547619Y-99879761D01*
X142452380Y-99927380D01*
X142261904Y-99927380D01*
X142166666Y-99879761D01*
X143500000Y-99927380D02*
X143500000Y-99403571D01*
X143452380Y-99308333D01*
X143357142Y-99260714D01*
X143166666Y-99260714D01*
X143071428Y-99308333D01*
X143500000Y-99879761D02*
X143404761Y-99927380D01*
X143166666Y-99927380D01*
X143071428Y-99879761D01*
X143023809Y-99784523D01*
X143023809Y-99689285D01*
X143071428Y-99594047D01*
X143166666Y-99546428D01*
X143404761Y-99546428D01*
X143500000Y-99498809D01*
X144404761Y-99879761D02*
X144309523Y-99927380D01*
X144119047Y-99927380D01*
X144023809Y-99879761D01*
X143976190Y-99832142D01*
X143928571Y-99736904D01*
X143928571Y-99451190D01*
X143976190Y-99355952D01*
X144023809Y-99308333D01*
X144119047Y-99260714D01*
X144309523Y-99260714D01*
X144404761Y-99308333D01*
X144833333Y-99927380D02*
X144833333Y-98927380D01*
X144928571Y-99546428D02*
X145214285Y-99927380D01*
X145214285Y-99260714D02*
X144833333Y-99641666D01*
X146738095Y-99403571D02*
X146880952Y-99451190D01*
X146928571Y-99498809D01*
X146976190Y-99594047D01*
X146976190Y-99736904D01*
X146928571Y-99832142D01*
X146880952Y-99879761D01*
X146785714Y-99927380D01*
X146404761Y-99927380D01*
X146404761Y-98927380D01*
X146738095Y-98927380D01*
X146833333Y-98975000D01*
X146880952Y-99022619D01*
X146928571Y-99117857D01*
X146928571Y-99213095D01*
X146880952Y-99308333D01*
X146833333Y-99355952D01*
X146738095Y-99403571D01*
X146404761Y-99403571D01*
X147833333Y-99260714D02*
X147833333Y-99927380D01*
X147404761Y-99260714D02*
X147404761Y-99784523D01*
X147452380Y-99879761D01*
X147547619Y-99927380D01*
X147690476Y-99927380D01*
X147785714Y-99879761D01*
X147833333Y-99832142D01*
X148738095Y-99927380D02*
X148738095Y-98927380D01*
X148738095Y-99879761D02*
X148642857Y-99927380D01*
X148452380Y-99927380D01*
X148357142Y-99879761D01*
X148309523Y-99832142D01*
X148261904Y-99736904D01*
X148261904Y-99451190D01*
X148309523Y-99355952D01*
X148357142Y-99308333D01*
X148452380Y-99260714D01*
X148642857Y-99260714D01*
X148738095Y-99308333D01*
X149642857Y-99927380D02*
X149642857Y-98927380D01*
X149642857Y-99879761D02*
X149547619Y-99927380D01*
X149357142Y-99927380D01*
X149261904Y-99879761D01*
X149214285Y-99832142D01*
X149166666Y-99736904D01*
X149166666Y-99451190D01*
X149214285Y-99355952D01*
X149261904Y-99308333D01*
X149357142Y-99260714D01*
X149547619Y-99260714D01*
X149642857Y-99308333D01*
X150023809Y-99260714D02*
X150261904Y-99927380D01*
X150500000Y-99260714D02*
X150261904Y-99927380D01*
X150166666Y-100165476D01*
X150119047Y-100213095D01*
X150023809Y-100260714D01*
X143238095Y-100537380D02*
X143238095Y-101251666D01*
X143190476Y-101394523D01*
X143095238Y-101489761D01*
X142952380Y-101537380D01*
X142857142Y-101537380D01*
X144095238Y-101489761D02*
X144000000Y-101537380D01*
X143809523Y-101537380D01*
X143714285Y-101489761D01*
X143666666Y-101394523D01*
X143666666Y-101013571D01*
X143714285Y-100918333D01*
X143809523Y-100870714D01*
X144000000Y-100870714D01*
X144095238Y-100918333D01*
X144142857Y-101013571D01*
X144142857Y-101108809D01*
X143666666Y-101204047D01*
X144571428Y-101537380D02*
X144571428Y-100870714D01*
X144571428Y-101061190D02*
X144619047Y-100965952D01*
X144666666Y-100918333D01*
X144761904Y-100870714D01*
X144857142Y-100870714D01*
X145190476Y-101537380D02*
X145190476Y-100870714D01*
X145190476Y-100537380D02*
X145142857Y-100585000D01*
X145190476Y-100632619D01*
X145238095Y-100585000D01*
X145190476Y-100537380D01*
X145190476Y-100632619D01*
X146095238Y-101489761D02*
X146000000Y-101537380D01*
X145809523Y-101537380D01*
X145714285Y-101489761D01*
X145666666Y-101442142D01*
X145619047Y-101346904D01*
X145619047Y-101061190D01*
X145666666Y-100965952D01*
X145714285Y-100918333D01*
X145809523Y-100870714D01*
X146000000Y-100870714D01*
X146095238Y-100918333D01*
X142738095Y-102623571D02*
X143071428Y-102623571D01*
X143214285Y-103147380D02*
X142738095Y-103147380D01*
X142738095Y-102147380D01*
X143214285Y-102147380D01*
X143642857Y-103147380D02*
X143642857Y-102480714D01*
X143642857Y-102575952D02*
X143690476Y-102528333D01*
X143785714Y-102480714D01*
X143928571Y-102480714D01*
X144023809Y-102528333D01*
X144071428Y-102623571D01*
X144071428Y-103147380D01*
X144071428Y-102623571D02*
X144119047Y-102528333D01*
X144214285Y-102480714D01*
X144357142Y-102480714D01*
X144452380Y-102528333D01*
X144500000Y-102623571D01*
X144500000Y-103147380D01*
X144976190Y-103147380D02*
X144976190Y-102480714D01*
X144976190Y-102147380D02*
X144928571Y-102195000D01*
X144976190Y-102242619D01*
X145023809Y-102195000D01*
X144976190Y-102147380D01*
X144976190Y-102242619D01*
X145595238Y-103147380D02*
X145500000Y-103099761D01*
X145452380Y-103004523D01*
X145452380Y-102147380D01*
X145880952Y-102480714D02*
X146119047Y-103147380D01*
X146357142Y-102480714D02*
X146119047Y-103147380D01*
X146023809Y-103385476D01*
X145976190Y-103433095D01*
X145880952Y-103480714D01*
X143190476Y-104757380D02*
X142857142Y-104281190D01*
X142619047Y-104757380D02*
X142619047Y-103757380D01*
X143000000Y-103757380D01*
X143095238Y-103805000D01*
X143142857Y-103852619D01*
X143190476Y-103947857D01*
X143190476Y-104090714D01*
X143142857Y-104185952D01*
X143095238Y-104233571D01*
X143000000Y-104281190D01*
X142619047Y-104281190D01*
X144047619Y-104757380D02*
X144047619Y-104233571D01*
X144000000Y-104138333D01*
X143904761Y-104090714D01*
X143714285Y-104090714D01*
X143619047Y-104138333D01*
X144047619Y-104709761D02*
X143952380Y-104757380D01*
X143714285Y-104757380D01*
X143619047Y-104709761D01*
X143571428Y-104614523D01*
X143571428Y-104519285D01*
X143619047Y-104424047D01*
X143714285Y-104376428D01*
X143952380Y-104376428D01*
X144047619Y-104328809D01*
X144523809Y-104757380D02*
X144523809Y-103757380D01*
X144952380Y-104757380D02*
X144952380Y-104233571D01*
X144904761Y-104138333D01*
X144809523Y-104090714D01*
X144666666Y-104090714D01*
X144571428Y-104138333D01*
X144523809Y-104185952D01*
X145857142Y-104090714D02*
X145857142Y-104757380D01*
X145428571Y-104090714D02*
X145428571Y-104614523D01*
X145476190Y-104709761D01*
X145571428Y-104757380D01*
X145714285Y-104757380D01*
X145809523Y-104709761D01*
X145857142Y-104662142D01*
X146476190Y-104757380D02*
X146380952Y-104709761D01*
X146333333Y-104614523D01*
X146333333Y-103757380D01*
X141809523Y-106319761D02*
X141952380Y-106367380D01*
X142190476Y-106367380D01*
X142285714Y-106319761D01*
X142333333Y-106272142D01*
X142380952Y-106176904D01*
X142380952Y-106081666D01*
X142333333Y-105986428D01*
X142285714Y-105938809D01*
X142190476Y-105891190D01*
X142000000Y-105843571D01*
X141904761Y-105795952D01*
X141857142Y-105748333D01*
X141809523Y-105653095D01*
X141809523Y-105557857D01*
X141857142Y-105462619D01*
X141904761Y-105415000D01*
X142000000Y-105367380D01*
X142238095Y-105367380D01*
X142380952Y-105415000D01*
X142809523Y-106367380D02*
X142809523Y-105367380D01*
X143190476Y-105367380D01*
X143285714Y-105415000D01*
X143333333Y-105462619D01*
X143380952Y-105557857D01*
X143380952Y-105700714D01*
X143333333Y-105795952D01*
X143285714Y-105843571D01*
X143190476Y-105891190D01*
X142809523Y-105891190D01*
X143761904Y-105462619D02*
X143809523Y-105415000D01*
X143904761Y-105367380D01*
X144142857Y-105367380D01*
X144238095Y-105415000D01*
X144285714Y-105462619D01*
X144333333Y-105557857D01*
X144333333Y-105653095D01*
X144285714Y-105795952D01*
X143714285Y-106367380D01*
X144333333Y-106367380D01*
X144952380Y-105367380D02*
X145047619Y-105367380D01*
X145142857Y-105415000D01*
X145190476Y-105462619D01*
X145238095Y-105557857D01*
X145285714Y-105748333D01*
X145285714Y-105986428D01*
X145238095Y-106176904D01*
X145190476Y-106272142D01*
X145142857Y-106319761D01*
X145047619Y-106367380D01*
X144952380Y-106367380D01*
X144857142Y-106319761D01*
X144809523Y-106272142D01*
X144761904Y-106176904D01*
X144714285Y-105986428D01*
X144714285Y-105748333D01*
X144761904Y-105557857D01*
X144809523Y-105462619D01*
X144857142Y-105415000D01*
X144952380Y-105367380D01*
X145666666Y-105462619D02*
X145714285Y-105415000D01*
X145809523Y-105367380D01*
X146047619Y-105367380D01*
X146142857Y-105415000D01*
X146190476Y-105462619D01*
X146238095Y-105557857D01*
X146238095Y-105653095D01*
X146190476Y-105795952D01*
X145619047Y-106367380D01*
X146238095Y-106367380D01*
X146571428Y-105367380D02*
X147190476Y-105367380D01*
X146857142Y-105748333D01*
X147000000Y-105748333D01*
X147095238Y-105795952D01*
X147142857Y-105843571D01*
X147190476Y-105938809D01*
X147190476Y-106176904D01*
X147142857Y-106272142D01*
X147095238Y-106319761D01*
X147000000Y-106367380D01*
X146714285Y-106367380D01*
X146619047Y-106319761D01*
X146571428Y-106272142D01*
X143690476Y-106977380D02*
X144023809Y-107977380D01*
X144357142Y-106977380D01*
X144595238Y-106977380D02*
X145214285Y-106977380D01*
X144880952Y-107358333D01*
X145023809Y-107358333D01*
X145119047Y-107405952D01*
X145166666Y-107453571D01*
X145214285Y-107548809D01*
X145214285Y-107786904D01*
X145166666Y-107882142D01*
X145119047Y-107929761D01*
X145023809Y-107977380D01*
X144738095Y-107977380D01*
X144642857Y-107929761D01*
X144595238Y-107882142D01*
X116927380Y-61293333D02*
X117641666Y-61293333D01*
X117784523Y-61340952D01*
X117879761Y-61436190D01*
X117927380Y-61579047D01*
X117927380Y-61674285D01*
X116927380Y-60388571D02*
X116927380Y-60579047D01*
X116975000Y-60674285D01*
X117022619Y-60721904D01*
X117165476Y-60817142D01*
X117355952Y-60864761D01*
X117736904Y-60864761D01*
X117832142Y-60817142D01*
X117879761Y-60769523D01*
X117927380Y-60674285D01*
X117927380Y-60483809D01*
X117879761Y-60388571D01*
X117832142Y-60340952D01*
X117736904Y-60293333D01*
X117498809Y-60293333D01*
X117403571Y-60340952D01*
X117355952Y-60388571D01*
X117308333Y-60483809D01*
X117308333Y-60674285D01*
X117355952Y-60769523D01*
X117403571Y-60817142D01*
X117498809Y-60864761D01*
X146162733Y-97404180D02*
X145829400Y-96927990D01*
X145591304Y-97404180D02*
X145591304Y-96404180D01*
X145972257Y-96404180D01*
X146067495Y-96451800D01*
X146115114Y-96499419D01*
X146162733Y-96594657D01*
X146162733Y-96737514D01*
X146115114Y-96832752D01*
X146067495Y-96880371D01*
X145972257Y-96927990D01*
X145591304Y-96927990D01*
X147019876Y-96404180D02*
X146829400Y-96404180D01*
X146734161Y-96451800D01*
X146686542Y-96499419D01*
X146591304Y-96642276D01*
X146543685Y-96832752D01*
X146543685Y-97213704D01*
X146591304Y-97308942D01*
X146638923Y-97356561D01*
X146734161Y-97404180D01*
X146924638Y-97404180D01*
X147019876Y-97356561D01*
X147067495Y-97308942D01*
X147115114Y-97213704D01*
X147115114Y-96975609D01*
X147067495Y-96880371D01*
X147019876Y-96832752D01*
X146924638Y-96785133D01*
X146734161Y-96785133D01*
X146638923Y-96832752D01*
X146591304Y-96880371D01*
X146543685Y-96975609D01*
X127379504Y-68346580D02*
X127379504Y-67346580D01*
X127617600Y-67346580D01*
X127760457Y-67394200D01*
X127855695Y-67489438D01*
X127903314Y-67584676D01*
X127950933Y-67775152D01*
X127950933Y-67918009D01*
X127903314Y-68108485D01*
X127855695Y-68203723D01*
X127760457Y-68298961D01*
X127617600Y-68346580D01*
X127379504Y-68346580D01*
X128284266Y-67346580D02*
X128950933Y-67346580D01*
X128522361Y-68346580D01*
X128333523Y-70191380D02*
X127857333Y-70191380D01*
X127809714Y-70667571D01*
X127857333Y-70619952D01*
X127952571Y-70572333D01*
X128190666Y-70572333D01*
X128285904Y-70619952D01*
X128333523Y-70667571D01*
X128381142Y-70762809D01*
X128381142Y-71000904D01*
X128333523Y-71096142D01*
X128285904Y-71143761D01*
X128190666Y-71191380D01*
X127952571Y-71191380D01*
X127857333Y-71143761D01*
X127809714Y-71096142D01*
X128666857Y-70191380D02*
X129000190Y-71191380D01*
X129333523Y-70191380D01*
X112419190Y-98191580D02*
X111943000Y-98191580D01*
X111943000Y-97191580D01*
X113133476Y-98143961D02*
X113038238Y-98191580D01*
X112847761Y-98191580D01*
X112752523Y-98143961D01*
X112704904Y-98048723D01*
X112704904Y-97667771D01*
X112752523Y-97572533D01*
X112847761Y-97524914D01*
X113038238Y-97524914D01*
X113133476Y-97572533D01*
X113181095Y-97667771D01*
X113181095Y-97763009D01*
X112704904Y-97858247D01*
X113466809Y-97524914D02*
X113847761Y-97524914D01*
X113609666Y-98191580D02*
X113609666Y-97334438D01*
X113657285Y-97239200D01*
X113752523Y-97191580D01*
X113847761Y-97191580D01*
X114038238Y-97524914D02*
X114419190Y-97524914D01*
X114181095Y-97191580D02*
X114181095Y-98048723D01*
X114228714Y-98143961D01*
X114323952Y-98191580D01*
X114419190Y-98191580D01*
X115371571Y-97191580D02*
X115704904Y-98191580D01*
X116038238Y-97191580D01*
X116371571Y-98191580D02*
X116371571Y-97524914D01*
X116371571Y-97191580D02*
X116323952Y-97239200D01*
X116371571Y-97286819D01*
X116419190Y-97239200D01*
X116371571Y-97191580D01*
X116371571Y-97286819D01*
X116847761Y-98191580D02*
X116847761Y-97191580D01*
X116847761Y-97572533D02*
X116943000Y-97524914D01*
X117133476Y-97524914D01*
X117228714Y-97572533D01*
X117276333Y-97620152D01*
X117323952Y-97715390D01*
X117323952Y-98001104D01*
X117276333Y-98096342D01*
X117228714Y-98143961D01*
X117133476Y-98191580D01*
X116943000Y-98191580D01*
X116847761Y-98143961D01*
X118133476Y-98143961D02*
X118038238Y-98191580D01*
X117847761Y-98191580D01*
X117752523Y-98143961D01*
X117704904Y-98048723D01*
X117704904Y-97667771D01*
X117752523Y-97572533D01*
X117847761Y-97524914D01*
X118038238Y-97524914D01*
X118133476Y-97572533D01*
X118181095Y-97667771D01*
X118181095Y-97763009D01*
X117704904Y-97858247D01*
X118562047Y-98143961D02*
X118657285Y-98191580D01*
X118847761Y-98191580D01*
X118943000Y-98143961D01*
X118990619Y-98048723D01*
X118990619Y-98001104D01*
X118943000Y-97905866D01*
X118847761Y-97858247D01*
X118704904Y-97858247D01*
X118609666Y-97810628D01*
X118562047Y-97715390D01*
X118562047Y-97667771D01*
X118609666Y-97572533D01*
X118704904Y-97524914D01*
X118847761Y-97524914D01*
X118943000Y-97572533D01*
X118837628Y-110755180D02*
X118837628Y-111564704D01*
X118885247Y-111659942D01*
X118932866Y-111707561D01*
X119028104Y-111755180D01*
X119218580Y-111755180D01*
X119313819Y-111707561D01*
X119361438Y-111659942D01*
X119409057Y-111564704D01*
X119409057Y-110755180D01*
X120028104Y-111755180D02*
X119932866Y-111707561D01*
X119885247Y-111612323D01*
X119885247Y-110755180D01*
X120266200Y-111088514D02*
X120647152Y-111088514D01*
X120409057Y-110755180D02*
X120409057Y-111612323D01*
X120456676Y-111707561D01*
X120551914Y-111755180D01*
X120647152Y-111755180D01*
X120980485Y-111755180D02*
X120980485Y-111088514D01*
X120980485Y-111278990D02*
X121028104Y-111183752D01*
X121075723Y-111136133D01*
X121170961Y-111088514D01*
X121266200Y-111088514D01*
X122028104Y-111755180D02*
X122028104Y-111231371D01*
X121980485Y-111136133D01*
X121885247Y-111088514D01*
X121694771Y-111088514D01*
X121599533Y-111136133D01*
X122028104Y-111707561D02*
X121932866Y-111755180D01*
X121694771Y-111755180D01*
X121599533Y-111707561D01*
X121551914Y-111612323D01*
X121551914Y-111517085D01*
X121599533Y-111421847D01*
X121694771Y-111374228D01*
X121932866Y-111374228D01*
X122028104Y-111326609D01*
X122456676Y-111707561D02*
X122551914Y-111755180D01*
X122742390Y-111755180D01*
X122837628Y-111707561D01*
X122885247Y-111612323D01*
X122885247Y-111564704D01*
X122837628Y-111469466D01*
X122742390Y-111421847D01*
X122599533Y-111421847D01*
X122504295Y-111374228D01*
X122456676Y-111278990D01*
X122456676Y-111231371D01*
X122504295Y-111136133D01*
X122599533Y-111088514D01*
X122742390Y-111088514D01*
X122837628Y-111136133D01*
X123456676Y-111755180D02*
X123361438Y-111707561D01*
X123313819Y-111659942D01*
X123266200Y-111564704D01*
X123266200Y-111278990D01*
X123313819Y-111183752D01*
X123361438Y-111136133D01*
X123456676Y-111088514D01*
X123599533Y-111088514D01*
X123694771Y-111136133D01*
X123742390Y-111183752D01*
X123790009Y-111278990D01*
X123790009Y-111564704D01*
X123742390Y-111659942D01*
X123694771Y-111707561D01*
X123599533Y-111755180D01*
X123456676Y-111755180D01*
X124218580Y-111088514D02*
X124218580Y-111755180D01*
X124218580Y-111183752D02*
X124266200Y-111136133D01*
X124361438Y-111088514D01*
X124504295Y-111088514D01*
X124599533Y-111136133D01*
X124647152Y-111231371D01*
X124647152Y-111755180D01*
X125123342Y-111755180D02*
X125123342Y-111088514D01*
X125123342Y-110755180D02*
X125075723Y-110802800D01*
X125123342Y-110850419D01*
X125170961Y-110802800D01*
X125123342Y-110755180D01*
X125123342Y-110850419D01*
X126028104Y-111707561D02*
X125932866Y-111755180D01*
X125742390Y-111755180D01*
X125647152Y-111707561D01*
X125599533Y-111659942D01*
X125551914Y-111564704D01*
X125551914Y-111278990D01*
X125599533Y-111183752D01*
X125647152Y-111136133D01*
X125742390Y-111088514D01*
X125932866Y-111088514D01*
X126028104Y-111136133D01*
X127742390Y-111755180D02*
X127170961Y-111755180D01*
X127456676Y-111755180D02*
X127456676Y-110755180D01*
X127361438Y-110898038D01*
X127266200Y-110993276D01*
X127170961Y-111040895D01*
X137303428Y-110831380D02*
X137303428Y-111640904D01*
X137351047Y-111736142D01*
X137398666Y-111783761D01*
X137493904Y-111831380D01*
X137684380Y-111831380D01*
X137779619Y-111783761D01*
X137827238Y-111736142D01*
X137874857Y-111640904D01*
X137874857Y-110831380D01*
X138493904Y-111831380D02*
X138398666Y-111783761D01*
X138351047Y-111688523D01*
X138351047Y-110831380D01*
X138732000Y-111164714D02*
X139112952Y-111164714D01*
X138874857Y-110831380D02*
X138874857Y-111688523D01*
X138922476Y-111783761D01*
X139017714Y-111831380D01*
X139112952Y-111831380D01*
X139446285Y-111831380D02*
X139446285Y-111164714D01*
X139446285Y-111355190D02*
X139493904Y-111259952D01*
X139541523Y-111212333D01*
X139636761Y-111164714D01*
X139732000Y-111164714D01*
X140493904Y-111831380D02*
X140493904Y-111307571D01*
X140446285Y-111212333D01*
X140351047Y-111164714D01*
X140160571Y-111164714D01*
X140065333Y-111212333D01*
X140493904Y-111783761D02*
X140398666Y-111831380D01*
X140160571Y-111831380D01*
X140065333Y-111783761D01*
X140017714Y-111688523D01*
X140017714Y-111593285D01*
X140065333Y-111498047D01*
X140160571Y-111450428D01*
X140398666Y-111450428D01*
X140493904Y-111402809D01*
X140922476Y-111783761D02*
X141017714Y-111831380D01*
X141208190Y-111831380D01*
X141303428Y-111783761D01*
X141351047Y-111688523D01*
X141351047Y-111640904D01*
X141303428Y-111545666D01*
X141208190Y-111498047D01*
X141065333Y-111498047D01*
X140970095Y-111450428D01*
X140922476Y-111355190D01*
X140922476Y-111307571D01*
X140970095Y-111212333D01*
X141065333Y-111164714D01*
X141208190Y-111164714D01*
X141303428Y-111212333D01*
X141922476Y-111831380D02*
X141827238Y-111783761D01*
X141779619Y-111736142D01*
X141732000Y-111640904D01*
X141732000Y-111355190D01*
X141779619Y-111259952D01*
X141827238Y-111212333D01*
X141922476Y-111164714D01*
X142065333Y-111164714D01*
X142160571Y-111212333D01*
X142208190Y-111259952D01*
X142255809Y-111355190D01*
X142255809Y-111640904D01*
X142208190Y-111736142D01*
X142160571Y-111783761D01*
X142065333Y-111831380D01*
X141922476Y-111831380D01*
X142684380Y-111164714D02*
X142684380Y-111831380D01*
X142684380Y-111259952D02*
X142732000Y-111212333D01*
X142827238Y-111164714D01*
X142970095Y-111164714D01*
X143065333Y-111212333D01*
X143112952Y-111307571D01*
X143112952Y-111831380D01*
X143589142Y-111831380D02*
X143589142Y-111164714D01*
X143589142Y-110831380D02*
X143541523Y-110879000D01*
X143589142Y-110926619D01*
X143636761Y-110879000D01*
X143589142Y-110831380D01*
X143589142Y-110926619D01*
X144493904Y-111783761D02*
X144398666Y-111831380D01*
X144208190Y-111831380D01*
X144112952Y-111783761D01*
X144065333Y-111736142D01*
X144017714Y-111640904D01*
X144017714Y-111355190D01*
X144065333Y-111259952D01*
X144112952Y-111212333D01*
X144208190Y-111164714D01*
X144398666Y-111164714D01*
X144493904Y-111212333D01*
X145636761Y-110926619D02*
X145684380Y-110879000D01*
X145779619Y-110831380D01*
X146017714Y-110831380D01*
X146112952Y-110879000D01*
X146160571Y-110926619D01*
X146208190Y-111021857D01*
X146208190Y-111117095D01*
X146160571Y-111259952D01*
X145589142Y-111831380D01*
X146208190Y-111831380D01*
X115927142Y-68486257D02*
X115974761Y-68533876D01*
X116022380Y-68676733D01*
X116022380Y-68771971D01*
X115974761Y-68914828D01*
X115879523Y-69010066D01*
X115784285Y-69057685D01*
X115593809Y-69105304D01*
X115450952Y-69105304D01*
X115260476Y-69057685D01*
X115165238Y-69010066D01*
X115070000Y-68914828D01*
X115022380Y-68771971D01*
X115022380Y-68676733D01*
X115070000Y-68533876D01*
X115117619Y-68486257D01*
X115117619Y-68105304D02*
X115070000Y-68057685D01*
X115022380Y-67962447D01*
X115022380Y-67724352D01*
X115070000Y-67629114D01*
X115117619Y-67581495D01*
X115212857Y-67533876D01*
X115308095Y-67533876D01*
X115450952Y-67581495D01*
X116022380Y-68152923D01*
X116022380Y-67533876D01*
X115355714Y-66676733D02*
X116022380Y-66676733D01*
X114974761Y-66914828D02*
X115689047Y-67152923D01*
X115689047Y-66533876D01*
X130049542Y-74277457D02*
X130097161Y-74325076D01*
X130144780Y-74467933D01*
X130144780Y-74563171D01*
X130097161Y-74706028D01*
X130001923Y-74801266D01*
X129906685Y-74848885D01*
X129716209Y-74896504D01*
X129573352Y-74896504D01*
X129382876Y-74848885D01*
X129287638Y-74801266D01*
X129192400Y-74706028D01*
X129144780Y-74563171D01*
X129144780Y-74467933D01*
X129192400Y-74325076D01*
X129240019Y-74277457D01*
X130144780Y-73325076D02*
X130144780Y-73896504D01*
X130144780Y-73610790D02*
X129144780Y-73610790D01*
X129287638Y-73706028D01*
X129382876Y-73801266D01*
X129430495Y-73896504D01*
X129144780Y-72991742D02*
X129144780Y-72372695D01*
X129525733Y-72706028D01*
X129525733Y-72563171D01*
X129573352Y-72467933D01*
X129620971Y-72420314D01*
X129716209Y-72372695D01*
X129954304Y-72372695D01*
X130049542Y-72420314D01*
X130097161Y-72467933D01*
X130144780Y-72563171D01*
X130144780Y-72848885D01*
X130097161Y-72944123D01*
X130049542Y-72991742D01*
X157008533Y-89739742D02*
X156960914Y-89787361D01*
X156818057Y-89834980D01*
X156722819Y-89834980D01*
X156579961Y-89787361D01*
X156484723Y-89692123D01*
X156437104Y-89596885D01*
X156389485Y-89406409D01*
X156389485Y-89263552D01*
X156437104Y-89073076D01*
X156484723Y-88977838D01*
X156579961Y-88882600D01*
X156722819Y-88834980D01*
X156818057Y-88834980D01*
X156960914Y-88882600D01*
X157008533Y-88930219D01*
X157865676Y-89168314D02*
X157865676Y-89834980D01*
X157627580Y-88787361D02*
X157389485Y-89501647D01*
X158008533Y-89501647D01*
X141523980Y-93778295D02*
X140523980Y-93778295D01*
X140523980Y-93540200D01*
X140571600Y-93397342D01*
X140666838Y-93302104D01*
X140762076Y-93254485D01*
X140952552Y-93206866D01*
X141095409Y-93206866D01*
X141285885Y-93254485D01*
X141381123Y-93302104D01*
X141476361Y-93397342D01*
X141523980Y-93540200D01*
X141523980Y-93778295D01*
X140523980Y-92302104D02*
X140523980Y-92778295D01*
X141000171Y-92825914D01*
X140952552Y-92778295D01*
X140904933Y-92683057D01*
X140904933Y-92444961D01*
X140952552Y-92349723D01*
X141000171Y-92302104D01*
X141095409Y-92254485D01*
X141333504Y-92254485D01*
X141428742Y-92302104D01*
X141476361Y-92349723D01*
X141523980Y-92444961D01*
X141523980Y-92683057D01*
X141476361Y-92778295D01*
X141428742Y-92825914D01*
X171527000Y-79176533D02*
X171527000Y-79409866D01*
X171893666Y-79409866D02*
X171193666Y-79409866D01*
X171193666Y-79076533D01*
X171260333Y-78843200D02*
X171227000Y-78809866D01*
X171193666Y-78743200D01*
X171193666Y-78576533D01*
X171227000Y-78509866D01*
X171260333Y-78476533D01*
X171327000Y-78443200D01*
X171393666Y-78443200D01*
X171493666Y-78476533D01*
X171893666Y-78876533D01*
X171893666Y-78443200D01*
X139618980Y-88876095D02*
X138618980Y-88876095D01*
X138618980Y-88638000D01*
X138666600Y-88495142D01*
X138761838Y-88399904D01*
X138857076Y-88352285D01*
X139047552Y-88304666D01*
X139190409Y-88304666D01*
X139380885Y-88352285D01*
X139476123Y-88399904D01*
X139571361Y-88495142D01*
X139618980Y-88638000D01*
X139618980Y-88876095D01*
X138618980Y-87447523D02*
X138618980Y-87638000D01*
X138666600Y-87733238D01*
X138714219Y-87780857D01*
X138857076Y-87876095D01*
X139047552Y-87923714D01*
X139428504Y-87923714D01*
X139523742Y-87876095D01*
X139571361Y-87828476D01*
X139618980Y-87733238D01*
X139618980Y-87542761D01*
X139571361Y-87447523D01*
X139523742Y-87399904D01*
X139428504Y-87352285D01*
X139190409Y-87352285D01*
X139095171Y-87399904D01*
X139047552Y-87447523D01*
X138999933Y-87542761D01*
X138999933Y-87733238D01*
X139047552Y-87828476D01*
X139095171Y-87876095D01*
X139190409Y-87923714D01*
X143833952Y-87826904D02*
X144100619Y-88626904D01*
X144367285Y-87826904D01*
X144633952Y-88626904D02*
X144633952Y-88093571D01*
X144633952Y-87826904D02*
X144595857Y-87865000D01*
X144633952Y-87903095D01*
X144672047Y-87865000D01*
X144633952Y-87826904D01*
X144633952Y-87903095D01*
X145014904Y-88093571D02*
X145014904Y-88626904D01*
X145014904Y-88169761D02*
X145053000Y-88131666D01*
X145129190Y-88093571D01*
X145243476Y-88093571D01*
X145319666Y-88131666D01*
X145357761Y-88207857D01*
X145357761Y-88626904D01*
X128801904Y-77134980D02*
X128801904Y-76134980D01*
X129040000Y-76134980D01*
X129182857Y-76182600D01*
X129278095Y-76277838D01*
X129325714Y-76373076D01*
X129373333Y-76563552D01*
X129373333Y-76706409D01*
X129325714Y-76896885D01*
X129278095Y-76992123D01*
X129182857Y-77087361D01*
X129040000Y-77134980D01*
X128801904Y-77134980D01*
X129944761Y-76563552D02*
X129849523Y-76515933D01*
X129801904Y-76468314D01*
X129754285Y-76373076D01*
X129754285Y-76325457D01*
X129801904Y-76230219D01*
X129849523Y-76182600D01*
X129944761Y-76134980D01*
X130135238Y-76134980D01*
X130230476Y-76182600D01*
X130278095Y-76230219D01*
X130325714Y-76325457D01*
X130325714Y-76373076D01*
X130278095Y-76468314D01*
X130230476Y-76515933D01*
X130135238Y-76563552D01*
X129944761Y-76563552D01*
X129849523Y-76611171D01*
X129801904Y-76658790D01*
X129754285Y-76754028D01*
X129754285Y-76944504D01*
X129801904Y-77039742D01*
X129849523Y-77087361D01*
X129944761Y-77134980D01*
X130135238Y-77134980D01*
X130230476Y-77087361D01*
X130278095Y-77039742D01*
X130325714Y-76944504D01*
X130325714Y-76754028D01*
X130278095Y-76658790D01*
X130230476Y-76611171D01*
X130135238Y-76563552D01*
X127968523Y-79208380D02*
X128587571Y-79208380D01*
X128254238Y-79589333D01*
X128397095Y-79589333D01*
X128492333Y-79636952D01*
X128539952Y-79684571D01*
X128587571Y-79779809D01*
X128587571Y-80017904D01*
X128539952Y-80113142D01*
X128492333Y-80160761D01*
X128397095Y-80208380D01*
X128111380Y-80208380D01*
X128016142Y-80160761D01*
X127968523Y-80113142D01*
X128920904Y-79541714D02*
X129159000Y-80208380D01*
X129397095Y-79541714D01*
X129682809Y-79208380D02*
X130301857Y-79208380D01*
X129968523Y-79589333D01*
X130111380Y-79589333D01*
X130206619Y-79636952D01*
X130254238Y-79684571D01*
X130301857Y-79779809D01*
X130301857Y-80017904D01*
X130254238Y-80113142D01*
X130206619Y-80160761D01*
X130111380Y-80208380D01*
X129825666Y-80208380D01*
X129730428Y-80160761D01*
X129682809Y-80113142D01*
X138374380Y-81859285D02*
X137374380Y-81859285D01*
X137374380Y-81621190D01*
X137422000Y-81478333D01*
X137517238Y-81383095D01*
X137612476Y-81335476D01*
X137802952Y-81287857D01*
X137945809Y-81287857D01*
X138136285Y-81335476D01*
X138231523Y-81383095D01*
X138326761Y-81478333D01*
X138374380Y-81621190D01*
X138374380Y-81859285D01*
X138374380Y-80335476D02*
X138374380Y-80906904D01*
X138374380Y-80621190D02*
X137374380Y-80621190D01*
X137517238Y-80716428D01*
X137612476Y-80811666D01*
X137660095Y-80906904D01*
X138374380Y-79383095D02*
X138374380Y-79954523D01*
X138374380Y-79668809D02*
X137374380Y-79668809D01*
X137517238Y-79764047D01*
X137612476Y-79859285D01*
X137660095Y-79954523D01*
X135277333Y-83247666D02*
X135277333Y-82547666D01*
X135444000Y-82547666D01*
X135544000Y-82581000D01*
X135610666Y-82647666D01*
X135644000Y-82714333D01*
X135677333Y-82847666D01*
X135677333Y-82947666D01*
X135644000Y-83081000D01*
X135610666Y-83147666D01*
X135544000Y-83214333D01*
X135444000Y-83247666D01*
X135277333Y-83247666D01*
X136210666Y-82881000D02*
X136310666Y-82914333D01*
X136344000Y-82947666D01*
X136377333Y-83014333D01*
X136377333Y-83114333D01*
X136344000Y-83181000D01*
X136310666Y-83214333D01*
X136244000Y-83247666D01*
X135977333Y-83247666D01*
X135977333Y-82547666D01*
X136210666Y-82547666D01*
X136277333Y-82581000D01*
X136310666Y-82614333D01*
X136344000Y-82681000D01*
X136344000Y-82747666D01*
X136310666Y-82814333D01*
X136277333Y-82847666D01*
X136210666Y-82881000D01*
X135977333Y-82881000D01*
X136644000Y-82614333D02*
X136677333Y-82581000D01*
X136744000Y-82547666D01*
X136910666Y-82547666D01*
X136977333Y-82581000D01*
X137010666Y-82614333D01*
X137044000Y-82681000D01*
X137044000Y-82747666D01*
X137010666Y-82847666D01*
X136610666Y-83247666D01*
X137044000Y-83247666D01*
X124985542Y-84196180D02*
X124652209Y-83719990D01*
X124414114Y-84196180D02*
X124414114Y-83196180D01*
X124795066Y-83196180D01*
X124890304Y-83243800D01*
X124937923Y-83291419D01*
X124985542Y-83386657D01*
X124985542Y-83529514D01*
X124937923Y-83624752D01*
X124890304Y-83672371D01*
X124795066Y-83719990D01*
X124414114Y-83719990D01*
X125937923Y-84196180D02*
X125366495Y-84196180D01*
X125652209Y-84196180D02*
X125652209Y-83196180D01*
X125556971Y-83339038D01*
X125461733Y-83434276D01*
X125366495Y-83481895D01*
X126795066Y-83529514D02*
X126795066Y-84196180D01*
X126556971Y-83148561D02*
X126318876Y-83862847D01*
X126937923Y-83862847D01*
X119499142Y-80265542D02*
X119451523Y-80313161D01*
X119308666Y-80360780D01*
X119213428Y-80360780D01*
X119070571Y-80313161D01*
X118975333Y-80217923D01*
X118927714Y-80122685D01*
X118880095Y-79932209D01*
X118880095Y-79789352D01*
X118927714Y-79598876D01*
X118975333Y-79503638D01*
X119070571Y-79408400D01*
X119213428Y-79360780D01*
X119308666Y-79360780D01*
X119451523Y-79408400D01*
X119499142Y-79456019D01*
X120451523Y-80360780D02*
X119880095Y-80360780D01*
X120165809Y-80360780D02*
X120165809Y-79360780D01*
X120070571Y-79503638D01*
X119975333Y-79598876D01*
X119880095Y-79646495D01*
X120927714Y-80360780D02*
X121118190Y-80360780D01*
X121213428Y-80313161D01*
X121261047Y-80265542D01*
X121356285Y-80122685D01*
X121403904Y-79932209D01*
X121403904Y-79551257D01*
X121356285Y-79456019D01*
X121308666Y-79408400D01*
X121213428Y-79360780D01*
X121022952Y-79360780D01*
X120927714Y-79408400D01*
X120880095Y-79456019D01*
X120832476Y-79551257D01*
X120832476Y-79789352D01*
X120880095Y-79884590D01*
X120927714Y-79932209D01*
X121022952Y-79979828D01*
X121213428Y-79979828D01*
X121308666Y-79932209D01*
X121356285Y-79884590D01*
X121403904Y-79789352D01*
X163457142Y-105542857D02*
X163504761Y-105590476D01*
X163552380Y-105733333D01*
X163552380Y-105828571D01*
X163504761Y-105971428D01*
X163409523Y-106066666D01*
X163314285Y-106114285D01*
X163123809Y-106161904D01*
X162980952Y-106161904D01*
X162790476Y-106114285D01*
X162695238Y-106066666D01*
X162600000Y-105971428D01*
X162552380Y-105828571D01*
X162552380Y-105733333D01*
X162600000Y-105590476D01*
X162647619Y-105542857D01*
X163552380Y-104590476D02*
X163552380Y-105161904D01*
X163552380Y-104876190D02*
X162552380Y-104876190D01*
X162695238Y-104971428D01*
X162790476Y-105066666D01*
X162838095Y-105161904D01*
X162552380Y-103733333D02*
X162552380Y-103923809D01*
X162600000Y-104019047D01*
X162647619Y-104066666D01*
X162790476Y-104161904D01*
X162980952Y-104209523D01*
X163361904Y-104209523D01*
X163457142Y-104161904D01*
X163504761Y-104114285D01*
X163552380Y-104019047D01*
X163552380Y-103828571D01*
X163504761Y-103733333D01*
X163457142Y-103685714D01*
X163361904Y-103638095D01*
X163123809Y-103638095D01*
X163028571Y-103685714D01*
X162980952Y-103733333D01*
X162933333Y-103828571D01*
X162933333Y-104019047D01*
X162980952Y-104114285D01*
X163028571Y-104161904D01*
X163123809Y-104209523D01*
X127992666Y-85526571D02*
X128326000Y-85526571D01*
X128468857Y-86050380D02*
X127992666Y-86050380D01*
X127992666Y-85050380D01*
X128468857Y-85050380D01*
X128849809Y-86002761D02*
X128992666Y-86050380D01*
X129230761Y-86050380D01*
X129326000Y-86002761D01*
X129373619Y-85955142D01*
X129421238Y-85859904D01*
X129421238Y-85764666D01*
X129373619Y-85669428D01*
X129326000Y-85621809D01*
X129230761Y-85574190D01*
X129040285Y-85526571D01*
X128945047Y-85478952D01*
X128897428Y-85431333D01*
X128849809Y-85336095D01*
X128849809Y-85240857D01*
X128897428Y-85145619D01*
X128945047Y-85098000D01*
X129040285Y-85050380D01*
X129278380Y-85050380D01*
X129421238Y-85098000D01*
X129849809Y-86050380D02*
X129849809Y-85050380D01*
X130230761Y-85050380D01*
X130326000Y-85098000D01*
X130373619Y-85145619D01*
X130421238Y-85240857D01*
X130421238Y-85383714D01*
X130373619Y-85478952D01*
X130326000Y-85526571D01*
X130230761Y-85574190D01*
X129849809Y-85574190D01*
X132183142Y-86050380D02*
X131849809Y-85574190D01*
X131611714Y-86050380D02*
X131611714Y-85050380D01*
X131992666Y-85050380D01*
X132087904Y-85098000D01*
X132135523Y-85145619D01*
X132183142Y-85240857D01*
X132183142Y-85383714D01*
X132135523Y-85478952D01*
X132087904Y-85526571D01*
X131992666Y-85574190D01*
X131611714Y-85574190D01*
X132611714Y-85526571D02*
X132945047Y-85526571D01*
X133087904Y-86050380D02*
X132611714Y-86050380D01*
X132611714Y-85050380D01*
X133087904Y-85050380D01*
X133468857Y-86002761D02*
X133611714Y-86050380D01*
X133849809Y-86050380D01*
X133945047Y-86002761D01*
X133992666Y-85955142D01*
X134040285Y-85859904D01*
X134040285Y-85764666D01*
X133992666Y-85669428D01*
X133945047Y-85621809D01*
X133849809Y-85574190D01*
X133659333Y-85526571D01*
X133564095Y-85478952D01*
X133516476Y-85431333D01*
X133468857Y-85336095D01*
X133468857Y-85240857D01*
X133516476Y-85145619D01*
X133564095Y-85098000D01*
X133659333Y-85050380D01*
X133897428Y-85050380D01*
X134040285Y-85098000D01*
X134468857Y-85526571D02*
X134802190Y-85526571D01*
X134945047Y-86050380D02*
X134468857Y-86050380D01*
X134468857Y-85050380D01*
X134945047Y-85050380D01*
X135230761Y-85050380D02*
X135802190Y-85050380D01*
X135516476Y-86050380D02*
X135516476Y-85050380D01*
X112117619Y-78938380D02*
X111784285Y-78462190D01*
X111546190Y-78938380D02*
X111546190Y-77938380D01*
X111927142Y-77938380D01*
X112022380Y-77986000D01*
X112070000Y-78033619D01*
X112117619Y-78128857D01*
X112117619Y-78271714D01*
X112070000Y-78366952D01*
X112022380Y-78414571D01*
X111927142Y-78462190D01*
X111546190Y-78462190D01*
X112546190Y-78938380D02*
X112546190Y-78271714D01*
X112546190Y-77938380D02*
X112498571Y-77986000D01*
X112546190Y-78033619D01*
X112593809Y-77986000D01*
X112546190Y-77938380D01*
X112546190Y-78033619D01*
X113450952Y-78271714D02*
X113450952Y-79081238D01*
X113403333Y-79176476D01*
X113355714Y-79224095D01*
X113260476Y-79271714D01*
X113117619Y-79271714D01*
X113022380Y-79224095D01*
X113450952Y-78890761D02*
X113355714Y-78938380D01*
X113165238Y-78938380D01*
X113070000Y-78890761D01*
X113022380Y-78843142D01*
X112974761Y-78747904D01*
X112974761Y-78462190D01*
X113022380Y-78366952D01*
X113070000Y-78319333D01*
X113165238Y-78271714D01*
X113355714Y-78271714D01*
X113450952Y-78319333D01*
X113927142Y-78938380D02*
X113927142Y-77938380D01*
X114355714Y-78938380D02*
X114355714Y-78414571D01*
X114308095Y-78319333D01*
X114212857Y-78271714D01*
X114070000Y-78271714D01*
X113974761Y-78319333D01*
X113927142Y-78366952D01*
X114689047Y-78271714D02*
X115070000Y-78271714D01*
X114831904Y-77938380D02*
X114831904Y-78795523D01*
X114879523Y-78890761D01*
X114974761Y-78938380D01*
X115070000Y-78938380D01*
X116022380Y-77938380D02*
X116355714Y-78938380D01*
X116689047Y-77938380D01*
X117022380Y-78938380D02*
X117022380Y-78271714D01*
X117022380Y-77938380D02*
X116974761Y-77986000D01*
X117022380Y-78033619D01*
X117070000Y-77986000D01*
X117022380Y-77938380D01*
X117022380Y-78033619D01*
X117498571Y-78938380D02*
X117498571Y-77938380D01*
X117498571Y-78319333D02*
X117593809Y-78271714D01*
X117784285Y-78271714D01*
X117879523Y-78319333D01*
X117927142Y-78366952D01*
X117974761Y-78462190D01*
X117974761Y-78747904D01*
X117927142Y-78843142D01*
X117879523Y-78890761D01*
X117784285Y-78938380D01*
X117593809Y-78938380D01*
X117498571Y-78890761D01*
X118784285Y-78890761D02*
X118689047Y-78938380D01*
X118498571Y-78938380D01*
X118403333Y-78890761D01*
X118355714Y-78795523D01*
X118355714Y-78414571D01*
X118403333Y-78319333D01*
X118498571Y-78271714D01*
X118689047Y-78271714D01*
X118784285Y-78319333D01*
X118831904Y-78414571D01*
X118831904Y-78509809D01*
X118355714Y-78605047D01*
X119212857Y-78890761D02*
X119308095Y-78938380D01*
X119498571Y-78938380D01*
X119593809Y-78890761D01*
X119641428Y-78795523D01*
X119641428Y-78747904D01*
X119593809Y-78652666D01*
X119498571Y-78605047D01*
X119355714Y-78605047D01*
X119260476Y-78557428D01*
X119212857Y-78462190D01*
X119212857Y-78414571D01*
X119260476Y-78319333D01*
X119355714Y-78271714D01*
X119498571Y-78271714D01*
X119593809Y-78319333D01*
X173351200Y-77874066D02*
X173584533Y-78574066D01*
X173817866Y-77874066D01*
X174051200Y-78574066D02*
X174051200Y-78107400D01*
X174051200Y-77874066D02*
X174017866Y-77907400D01*
X174051200Y-77940733D01*
X174084533Y-77907400D01*
X174051200Y-77874066D01*
X174051200Y-77940733D01*
X174384533Y-78107400D02*
X174384533Y-78574066D01*
X174384533Y-78174066D02*
X174417866Y-78140733D01*
X174484533Y-78107400D01*
X174584533Y-78107400D01*
X174651200Y-78140733D01*
X174684533Y-78207400D01*
X174684533Y-78574066D01*
X174851200Y-78640733D02*
X175384533Y-78640733D01*
X175551200Y-77874066D02*
X175551200Y-78440733D01*
X175584533Y-78507400D01*
X175617866Y-78540733D01*
X175684533Y-78574066D01*
X175817866Y-78574066D01*
X175884533Y-78540733D01*
X175917866Y-78507400D01*
X175951200Y-78440733D01*
X175951200Y-77874066D01*
X169188095Y-66152380D02*
X169188095Y-66961904D01*
X169235714Y-67057142D01*
X169283333Y-67104761D01*
X169378571Y-67152380D01*
X169569047Y-67152380D01*
X169664285Y-67104761D01*
X169711904Y-67057142D01*
X169759523Y-66961904D01*
X169759523Y-66152380D01*
X170188095Y-66247619D02*
X170235714Y-66200000D01*
X170330952Y-66152380D01*
X170569047Y-66152380D01*
X170664285Y-66200000D01*
X170711904Y-66247619D01*
X170759523Y-66342857D01*
X170759523Y-66438095D01*
X170711904Y-66580952D01*
X170140476Y-67152380D01*
X170759523Y-67152380D01*
X134378723Y-77989180D02*
X133902533Y-77989180D01*
X133854914Y-78465371D01*
X133902533Y-78417752D01*
X133997771Y-78370133D01*
X134235866Y-78370133D01*
X134331104Y-78417752D01*
X134378723Y-78465371D01*
X134426342Y-78560609D01*
X134426342Y-78798704D01*
X134378723Y-78893942D01*
X134331104Y-78941561D01*
X134235866Y-78989180D01*
X133997771Y-78989180D01*
X133902533Y-78941561D01*
X133854914Y-78893942D01*
X134712057Y-77989180D02*
X135045390Y-78989180D01*
X135378723Y-77989180D01*
X160595533Y-77516666D02*
X160595533Y-76816666D01*
X160762200Y-76816666D01*
X160862200Y-76850000D01*
X160928866Y-76916666D01*
X160962200Y-76983333D01*
X160995533Y-77116666D01*
X160995533Y-77216666D01*
X160962200Y-77350000D01*
X160928866Y-77416666D01*
X160862200Y-77483333D01*
X160762200Y-77516666D01*
X160595533Y-77516666D01*
X161595533Y-77050000D02*
X161595533Y-77516666D01*
X161428866Y-76783333D02*
X161262200Y-77283333D01*
X161695533Y-77283333D01*
X139568180Y-90489066D02*
X139091990Y-90822400D01*
X139568180Y-91060495D02*
X138568180Y-91060495D01*
X138568180Y-90679542D01*
X138615800Y-90584304D01*
X138663419Y-90536685D01*
X138758657Y-90489066D01*
X138901514Y-90489066D01*
X138996752Y-90536685D01*
X139044371Y-90584304D01*
X139091990Y-90679542D01*
X139091990Y-91060495D01*
X138568180Y-90155733D02*
X138568180Y-89489066D01*
X139568180Y-89917638D01*
X131864380Y-81859285D02*
X130864380Y-81859285D01*
X130864380Y-81621190D01*
X130912000Y-81478333D01*
X131007238Y-81383095D01*
X131102476Y-81335476D01*
X131292952Y-81287857D01*
X131435809Y-81287857D01*
X131626285Y-81335476D01*
X131721523Y-81383095D01*
X131816761Y-81478333D01*
X131864380Y-81621190D01*
X131864380Y-81859285D01*
X131864380Y-80335476D02*
X131864380Y-80906904D01*
X131864380Y-80621190D02*
X130864380Y-80621190D01*
X131007238Y-80716428D01*
X131102476Y-80811666D01*
X131150095Y-80906904D01*
X130864380Y-79716428D02*
X130864380Y-79621190D01*
X130912000Y-79525952D01*
X130959619Y-79478333D01*
X131054857Y-79430714D01*
X131245333Y-79383095D01*
X131483428Y-79383095D01*
X131673904Y-79430714D01*
X131769142Y-79478333D01*
X131816761Y-79525952D01*
X131864380Y-79621190D01*
X131864380Y-79716428D01*
X131816761Y-79811666D01*
X131769142Y-79859285D01*
X131673904Y-79906904D01*
X131483428Y-79954523D01*
X131245333Y-79954523D01*
X131054857Y-79906904D01*
X130959619Y-79859285D01*
X130912000Y-79811666D01*
X130864380Y-79716428D01*
X131594333Y-83247666D02*
X131594333Y-82547666D01*
X131761000Y-82547666D01*
X131861000Y-82581000D01*
X131927666Y-82647666D01*
X131961000Y-82714333D01*
X131994333Y-82847666D01*
X131994333Y-82947666D01*
X131961000Y-83081000D01*
X131927666Y-83147666D01*
X131861000Y-83214333D01*
X131761000Y-83247666D01*
X131594333Y-83247666D01*
X132527666Y-82881000D02*
X132627666Y-82914333D01*
X132661000Y-82947666D01*
X132694333Y-83014333D01*
X132694333Y-83114333D01*
X132661000Y-83181000D01*
X132627666Y-83214333D01*
X132561000Y-83247666D01*
X132294333Y-83247666D01*
X132294333Y-82547666D01*
X132527666Y-82547666D01*
X132594333Y-82581000D01*
X132627666Y-82614333D01*
X132661000Y-82681000D01*
X132661000Y-82747666D01*
X132627666Y-82814333D01*
X132594333Y-82847666D01*
X132527666Y-82881000D01*
X132294333Y-82881000D01*
X133361000Y-83247666D02*
X132961000Y-83247666D01*
X133161000Y-83247666D02*
X133161000Y-82547666D01*
X133094333Y-82647666D01*
X133027666Y-82714333D01*
X132961000Y-82747666D01*
X130389333Y-103895142D02*
X130341714Y-103942761D01*
X130198857Y-103990380D01*
X130103619Y-103990380D01*
X129960761Y-103942761D01*
X129865523Y-103847523D01*
X129817904Y-103752285D01*
X129770285Y-103561809D01*
X129770285Y-103418952D01*
X129817904Y-103228476D01*
X129865523Y-103133238D01*
X129960761Y-103038000D01*
X130103619Y-102990380D01*
X130198857Y-102990380D01*
X130341714Y-103038000D01*
X130389333Y-103085619D01*
X131294095Y-102990380D02*
X130817904Y-102990380D01*
X130770285Y-103466571D01*
X130817904Y-103418952D01*
X130913142Y-103371333D01*
X131151238Y-103371333D01*
X131246476Y-103418952D01*
X131294095Y-103466571D01*
X131341714Y-103561809D01*
X131341714Y-103799904D01*
X131294095Y-103895142D01*
X131246476Y-103942761D01*
X131151238Y-103990380D01*
X130913142Y-103990380D01*
X130817904Y-103942761D01*
X130770285Y-103895142D01*
X172799476Y-66987380D02*
X172799476Y-67701666D01*
X172751857Y-67844523D01*
X172656619Y-67939761D01*
X172513761Y-67987380D01*
X172418523Y-67987380D01*
X173799476Y-67987380D02*
X173228047Y-67987380D01*
X173513761Y-67987380D02*
X173513761Y-66987380D01*
X173418523Y-67130238D01*
X173323285Y-67225476D01*
X173228047Y-67273095D01*
X174751857Y-67987380D02*
X174180428Y-67987380D01*
X174466142Y-67987380D02*
X174466142Y-66987380D01*
X174370904Y-67130238D01*
X174275666Y-67225476D01*
X174180428Y-67273095D01*
X128897142Y-109167142D02*
X128849523Y-109214761D01*
X128706666Y-109262380D01*
X128611428Y-109262380D01*
X128468571Y-109214761D01*
X128373333Y-109119523D01*
X128325714Y-109024285D01*
X128278095Y-108833809D01*
X128278095Y-108690952D01*
X128325714Y-108500476D01*
X128373333Y-108405238D01*
X128468571Y-108310000D01*
X128611428Y-108262380D01*
X128706666Y-108262380D01*
X128849523Y-108310000D01*
X128897142Y-108357619D01*
X129849523Y-109262380D02*
X129278095Y-109262380D01*
X129563809Y-109262380D02*
X129563809Y-108262380D01*
X129468571Y-108405238D01*
X129373333Y-108500476D01*
X129278095Y-108548095D01*
X130182857Y-108262380D02*
X130849523Y-108262380D01*
X130420952Y-109262380D01*
X111618780Y-68929095D02*
X111618780Y-68310047D01*
X111999733Y-68643380D01*
X111999733Y-68500523D01*
X112047352Y-68405285D01*
X112094971Y-68357666D01*
X112190209Y-68310047D01*
X112428304Y-68310047D01*
X112523542Y-68357666D01*
X112571161Y-68405285D01*
X112618780Y-68500523D01*
X112618780Y-68786238D01*
X112571161Y-68881476D01*
X112523542Y-68929095D01*
X111618780Y-68024333D02*
X112618780Y-67691000D01*
X111618780Y-67357666D01*
X111618780Y-67119571D02*
X111618780Y-66500523D01*
X111999733Y-66833857D01*
X111999733Y-66691000D01*
X112047352Y-66595761D01*
X112094971Y-66548142D01*
X112190209Y-66500523D01*
X112428304Y-66500523D01*
X112523542Y-66548142D01*
X112571161Y-66595761D01*
X112618780Y-66691000D01*
X112618780Y-66976714D01*
X112571161Y-67071952D01*
X112523542Y-67119571D01*
X139390380Y-67883066D02*
X139390380Y-68359257D01*
X138390380Y-68359257D01*
X139390380Y-67025923D02*
X139390380Y-67597352D01*
X139390380Y-67311638D02*
X138390380Y-67311638D01*
X138533238Y-67406876D01*
X138628476Y-67502114D01*
X138676095Y-67597352D01*
X171962866Y-80757780D02*
X171962866Y-81472066D01*
X171915247Y-81614923D01*
X171820009Y-81710161D01*
X171677152Y-81757780D01*
X171581914Y-81757780D01*
X172439057Y-81757780D02*
X172439057Y-80757780D01*
X172820009Y-80757780D01*
X172915247Y-80805400D01*
X172962866Y-80853019D01*
X173010485Y-80948257D01*
X173010485Y-81091114D01*
X172962866Y-81186352D01*
X172915247Y-81233971D01*
X172820009Y-81281590D01*
X172439057Y-81281590D01*
X173962866Y-81757780D02*
X173391438Y-81757780D01*
X173677152Y-81757780D02*
X173677152Y-80757780D01*
X173581914Y-80900638D01*
X173486676Y-80995876D01*
X173391438Y-81043495D01*
X174971428Y-85171428D02*
X174371428Y-85171428D01*
X174371428Y-84942857D01*
X174400000Y-84885714D01*
X174428571Y-84857142D01*
X174485714Y-84828571D01*
X174571428Y-84828571D01*
X174628571Y-84857142D01*
X174657142Y-84885714D01*
X174685714Y-84942857D01*
X174685714Y-85171428D01*
X174971428Y-84571428D02*
X174371428Y-84571428D01*
X174371428Y-84342857D01*
X174400000Y-84285714D01*
X174428571Y-84257142D01*
X174485714Y-84228571D01*
X174571428Y-84228571D01*
X174628571Y-84257142D01*
X174657142Y-84285714D01*
X174685714Y-84342857D01*
X174685714Y-84571428D01*
X174942857Y-83542857D02*
X174971428Y-83457142D01*
X174971428Y-83314285D01*
X174942857Y-83257142D01*
X174914285Y-83228571D01*
X174857142Y-83200000D01*
X174800000Y-83200000D01*
X174742857Y-83228571D01*
X174714285Y-83257142D01*
X174685714Y-83314285D01*
X174657142Y-83428571D01*
X174628571Y-83485714D01*
X174600000Y-83514285D01*
X174542857Y-83542857D01*
X174485714Y-83542857D01*
X174428571Y-83514285D01*
X174400000Y-83485714D01*
X174371428Y-83428571D01*
X174371428Y-83285714D01*
X174400000Y-83200000D01*
X174971428Y-82942857D02*
X174371428Y-82942857D01*
X174971428Y-82685714D02*
X174657142Y-82685714D01*
X174600000Y-82714285D01*
X174571428Y-82771428D01*
X174571428Y-82857142D01*
X174600000Y-82914285D01*
X174628571Y-82942857D01*
X174971428Y-82314285D02*
X174942857Y-82371428D01*
X174914285Y-82400000D01*
X174857142Y-82428571D01*
X174685714Y-82428571D01*
X174628571Y-82400000D01*
X174600000Y-82371428D01*
X174571428Y-82314285D01*
X174571428Y-82228571D01*
X174600000Y-82171428D01*
X174628571Y-82142857D01*
X174685714Y-82114285D01*
X174857142Y-82114285D01*
X174914285Y-82142857D01*
X174942857Y-82171428D01*
X174971428Y-82228571D01*
X174971428Y-82314285D01*
X174971428Y-81857142D02*
X174571428Y-81857142D01*
X174685714Y-81857142D02*
X174628571Y-81828571D01*
X174600000Y-81800000D01*
X174571428Y-81742857D01*
X174571428Y-81685714D01*
X174571428Y-81571428D02*
X174571428Y-81342857D01*
X174371428Y-81485714D02*
X174885714Y-81485714D01*
X174942857Y-81457142D01*
X174971428Y-81400000D01*
X174971428Y-81342857D01*
X121054904Y-106903780D02*
X121054904Y-105903780D01*
X121293000Y-105903780D01*
X121435857Y-105951400D01*
X121531095Y-106046638D01*
X121578714Y-106141876D01*
X121626333Y-106332352D01*
X121626333Y-106475209D01*
X121578714Y-106665685D01*
X121531095Y-106760923D01*
X121435857Y-106856161D01*
X121293000Y-106903780D01*
X121054904Y-106903780D01*
X122578714Y-106903780D02*
X122007285Y-106903780D01*
X122293000Y-106903780D02*
X122293000Y-105903780D01*
X122197761Y-106046638D01*
X122102523Y-106141876D01*
X122007285Y-106189495D01*
X145381742Y-95607142D02*
X145334123Y-95654761D01*
X145191266Y-95702380D01*
X145096028Y-95702380D01*
X144953171Y-95654761D01*
X144857933Y-95559523D01*
X144810314Y-95464285D01*
X144762695Y-95273809D01*
X144762695Y-95130952D01*
X144810314Y-94940476D01*
X144857933Y-94845238D01*
X144953171Y-94750000D01*
X145096028Y-94702380D01*
X145191266Y-94702380D01*
X145334123Y-94750000D01*
X145381742Y-94797619D01*
X146334123Y-95702380D02*
X145762695Y-95702380D01*
X146048409Y-95702380D02*
X146048409Y-94702380D01*
X145953171Y-94845238D01*
X145857933Y-94940476D01*
X145762695Y-94988095D01*
X147286504Y-95702380D02*
X146715076Y-95702380D01*
X147000790Y-95702380D02*
X147000790Y-94702380D01*
X146905552Y-94845238D01*
X146810314Y-94940476D01*
X146715076Y-94988095D01*
X133996133Y-104008180D02*
X133662800Y-103531990D01*
X133424704Y-104008180D02*
X133424704Y-103008180D01*
X133805657Y-103008180D01*
X133900895Y-103055800D01*
X133948514Y-103103419D01*
X133996133Y-103198657D01*
X133996133Y-103341514D01*
X133948514Y-103436752D01*
X133900895Y-103484371D01*
X133805657Y-103531990D01*
X133424704Y-103531990D01*
X134948514Y-104008180D02*
X134377085Y-104008180D01*
X134662800Y-104008180D02*
X134662800Y-103008180D01*
X134567561Y-103151038D01*
X134472323Y-103246276D01*
X134377085Y-103293895D01*
X173482095Y-100287200D02*
X173386857Y-100239580D01*
X173244000Y-100239580D01*
X173101142Y-100287200D01*
X173005904Y-100382438D01*
X172958285Y-100477676D01*
X172910666Y-100668152D01*
X172910666Y-100811009D01*
X172958285Y-101001485D01*
X173005904Y-101096723D01*
X173101142Y-101191961D01*
X173244000Y-101239580D01*
X173339238Y-101239580D01*
X173482095Y-101191961D01*
X173529714Y-101144342D01*
X173529714Y-100811009D01*
X173339238Y-100811009D01*
X173958285Y-101239580D02*
X173958285Y-100239580D01*
X174529714Y-101239580D01*
X174529714Y-100239580D01*
X175005904Y-101239580D02*
X175005904Y-100239580D01*
X175244000Y-100239580D01*
X175386857Y-100287200D01*
X175482095Y-100382438D01*
X175529714Y-100477676D01*
X175577333Y-100668152D01*
X175577333Y-100811009D01*
X175529714Y-101001485D01*
X175482095Y-101096723D01*
X175386857Y-101191961D01*
X175244000Y-101239580D01*
X175005904Y-101239580D01*
X126810000Y-94305380D02*
X126810000Y-93305380D01*
X127143333Y-94019666D01*
X127476666Y-93305380D01*
X127476666Y-94305380D01*
X128524285Y-94210142D02*
X128476666Y-94257761D01*
X128333809Y-94305380D01*
X128238571Y-94305380D01*
X128095714Y-94257761D01*
X128000476Y-94162523D01*
X127952857Y-94067285D01*
X127905238Y-93876809D01*
X127905238Y-93733952D01*
X127952857Y-93543476D01*
X128000476Y-93448238D01*
X128095714Y-93353000D01*
X128238571Y-93305380D01*
X128333809Y-93305380D01*
X128476666Y-93353000D01*
X128524285Y-93400619D01*
X128952857Y-93305380D02*
X128952857Y-94114904D01*
X129000476Y-94210142D01*
X129048095Y-94257761D01*
X129143333Y-94305380D01*
X129333809Y-94305380D01*
X129429047Y-94257761D01*
X129476666Y-94210142D01*
X129524285Y-94114904D01*
X129524285Y-93305380D01*
X131333809Y-94305380D02*
X131000476Y-93829190D01*
X130762380Y-94305380D02*
X130762380Y-93305380D01*
X131143333Y-93305380D01*
X131238571Y-93353000D01*
X131286190Y-93400619D01*
X131333809Y-93495857D01*
X131333809Y-93638714D01*
X131286190Y-93733952D01*
X131238571Y-93781571D01*
X131143333Y-93829190D01*
X130762380Y-93829190D01*
X131762380Y-93781571D02*
X132095714Y-93781571D01*
X132238571Y-94305380D02*
X131762380Y-94305380D01*
X131762380Y-93305380D01*
X132238571Y-93305380D01*
X132619523Y-94257761D02*
X132762380Y-94305380D01*
X133000476Y-94305380D01*
X133095714Y-94257761D01*
X133143333Y-94210142D01*
X133190952Y-94114904D01*
X133190952Y-94019666D01*
X133143333Y-93924428D01*
X133095714Y-93876809D01*
X133000476Y-93829190D01*
X132810000Y-93781571D01*
X132714761Y-93733952D01*
X132667142Y-93686333D01*
X132619523Y-93591095D01*
X132619523Y-93495857D01*
X132667142Y-93400619D01*
X132714761Y-93353000D01*
X132810000Y-93305380D01*
X133048095Y-93305380D01*
X133190952Y-93353000D01*
X133619523Y-93781571D02*
X133952857Y-93781571D01*
X134095714Y-94305380D02*
X133619523Y-94305380D01*
X133619523Y-93305380D01*
X134095714Y-93305380D01*
X134381428Y-93305380D02*
X134952857Y-93305380D01*
X134667142Y-94305380D02*
X134667142Y-93305380D01*
X173266266Y-85570266D02*
X173499600Y-86270266D01*
X173732933Y-85570266D01*
X173966266Y-86270266D02*
X173966266Y-85803600D01*
X173966266Y-85570266D02*
X173932933Y-85603600D01*
X173966266Y-85636933D01*
X173999600Y-85603600D01*
X173966266Y-85570266D01*
X173966266Y-85636933D01*
X174299600Y-85803600D02*
X174299600Y-86270266D01*
X174299600Y-85870266D02*
X174332933Y-85836933D01*
X174399600Y-85803600D01*
X174499600Y-85803600D01*
X174566266Y-85836933D01*
X174599600Y-85903600D01*
X174599600Y-86270266D01*
X174766266Y-86336933D02*
X175299600Y-86336933D01*
X175466266Y-86270266D02*
X175466266Y-85570266D01*
X175732933Y-85570266D01*
X175799600Y-85603600D01*
X175832933Y-85636933D01*
X175866266Y-85703600D01*
X175866266Y-85803600D01*
X175832933Y-85870266D01*
X175799600Y-85903600D01*
X175732933Y-85936933D01*
X175466266Y-85936933D01*
X146807180Y-89942895D02*
X145807180Y-89942895D01*
X145807180Y-89704800D01*
X145854800Y-89561942D01*
X145950038Y-89466704D01*
X146045276Y-89419085D01*
X146235752Y-89371466D01*
X146378609Y-89371466D01*
X146569085Y-89419085D01*
X146664323Y-89466704D01*
X146759561Y-89561942D01*
X146807180Y-89704800D01*
X146807180Y-89942895D01*
X145902419Y-88990514D02*
X145854800Y-88942895D01*
X145807180Y-88847657D01*
X145807180Y-88609561D01*
X145854800Y-88514323D01*
X145902419Y-88466704D01*
X145997657Y-88419085D01*
X146092895Y-88419085D01*
X146235752Y-88466704D01*
X146807180Y-89038133D01*
X146807180Y-88419085D01*
X158711904Y-108604380D02*
X158711904Y-107604380D01*
X159092857Y-107604380D01*
X159188095Y-107652000D01*
X159235714Y-107699619D01*
X159283333Y-107794857D01*
X159283333Y-107937714D01*
X159235714Y-108032952D01*
X159188095Y-108080571D01*
X159092857Y-108128190D01*
X158711904Y-108128190D01*
X160045238Y-108080571D02*
X160188095Y-108128190D01*
X160235714Y-108175809D01*
X160283333Y-108271047D01*
X160283333Y-108413904D01*
X160235714Y-108509142D01*
X160188095Y-108556761D01*
X160092857Y-108604380D01*
X159711904Y-108604380D01*
X159711904Y-107604380D01*
X160045238Y-107604380D01*
X160140476Y-107652000D01*
X160188095Y-107699619D01*
X160235714Y-107794857D01*
X160235714Y-107890095D01*
X160188095Y-107985333D01*
X160140476Y-108032952D01*
X160045238Y-108080571D01*
X159711904Y-108080571D01*
X160616666Y-107604380D02*
X161283333Y-107604380D01*
X160854761Y-108604380D01*
X137866380Y-110307285D02*
X136866380Y-110307285D01*
X136866380Y-110069190D01*
X136914000Y-109926333D01*
X137009238Y-109831095D01*
X137104476Y-109783476D01*
X137294952Y-109735857D01*
X137437809Y-109735857D01*
X137628285Y-109783476D01*
X137723523Y-109831095D01*
X137818761Y-109926333D01*
X137866380Y-110069190D01*
X137866380Y-110307285D01*
X137866380Y-108783476D02*
X137866380Y-109354904D01*
X137866380Y-109069190D02*
X136866380Y-109069190D01*
X137009238Y-109164428D01*
X137104476Y-109259666D01*
X137152095Y-109354904D01*
X136961619Y-108402523D02*
X136914000Y-108354904D01*
X136866380Y-108259666D01*
X136866380Y-108021571D01*
X136914000Y-107926333D01*
X136961619Y-107878714D01*
X137056857Y-107831095D01*
X137152095Y-107831095D01*
X137294952Y-107878714D01*
X137866380Y-108450142D01*
X137866380Y-107831095D01*
X138071333Y-107123666D02*
X138071333Y-106423666D01*
X138238000Y-106423666D01*
X138338000Y-106457000D01*
X138404666Y-106523666D01*
X138438000Y-106590333D01*
X138471333Y-106723666D01*
X138471333Y-106823666D01*
X138438000Y-106957000D01*
X138404666Y-107023666D01*
X138338000Y-107090333D01*
X138238000Y-107123666D01*
X138071333Y-107123666D01*
X139004666Y-106757000D02*
X139104666Y-106790333D01*
X139138000Y-106823666D01*
X139171333Y-106890333D01*
X139171333Y-106990333D01*
X139138000Y-107057000D01*
X139104666Y-107090333D01*
X139038000Y-107123666D01*
X138771333Y-107123666D01*
X138771333Y-106423666D01*
X139004666Y-106423666D01*
X139071333Y-106457000D01*
X139104666Y-106490333D01*
X139138000Y-106557000D01*
X139138000Y-106623666D01*
X139104666Y-106690333D01*
X139071333Y-106723666D01*
X139004666Y-106757000D01*
X138771333Y-106757000D01*
X139404666Y-106423666D02*
X139838000Y-106423666D01*
X139604666Y-106690333D01*
X139704666Y-106690333D01*
X139771333Y-106723666D01*
X139804666Y-106757000D01*
X139838000Y-106823666D01*
X139838000Y-106990333D01*
X139804666Y-107057000D01*
X139771333Y-107090333D01*
X139704666Y-107123666D01*
X139504666Y-107123666D01*
X139438000Y-107090333D01*
X139404666Y-107057000D01*
X147714642Y-109167142D02*
X147667023Y-109214761D01*
X147524166Y-109262380D01*
X147428928Y-109262380D01*
X147286071Y-109214761D01*
X147190833Y-109119523D01*
X147143214Y-109024285D01*
X147095595Y-108833809D01*
X147095595Y-108690952D01*
X147143214Y-108500476D01*
X147190833Y-108405238D01*
X147286071Y-108310000D01*
X147428928Y-108262380D01*
X147524166Y-108262380D01*
X147667023Y-108310000D01*
X147714642Y-108357619D01*
X148667023Y-109262380D02*
X148095595Y-109262380D01*
X148381309Y-109262380D02*
X148381309Y-108262380D01*
X148286071Y-108405238D01*
X148190833Y-108500476D01*
X148095595Y-108548095D01*
X149238452Y-108690952D02*
X149143214Y-108643333D01*
X149095595Y-108595714D01*
X149047976Y-108500476D01*
X149047976Y-108452857D01*
X149095595Y-108357619D01*
X149143214Y-108310000D01*
X149238452Y-108262380D01*
X149428928Y-108262380D01*
X149524166Y-108310000D01*
X149571785Y-108357619D01*
X149619404Y-108452857D01*
X149619404Y-108500476D01*
X149571785Y-108595714D01*
X149524166Y-108643333D01*
X149428928Y-108690952D01*
X149238452Y-108690952D01*
X149143214Y-108738571D01*
X149095595Y-108786190D01*
X149047976Y-108881428D01*
X149047976Y-109071904D01*
X149095595Y-109167142D01*
X149143214Y-109214761D01*
X149238452Y-109262380D01*
X149428928Y-109262380D01*
X149524166Y-109214761D01*
X149571785Y-109167142D01*
X149619404Y-109071904D01*
X149619404Y-108881428D01*
X149571785Y-108786190D01*
X149524166Y-108738571D01*
X149428928Y-108690952D01*
X117401933Y-95111819D02*
X117401933Y-94397533D01*
X117449552Y-94254676D01*
X117544790Y-94159438D01*
X117687647Y-94111819D01*
X117782885Y-94111819D01*
X117020980Y-95111819D02*
X116354314Y-95111819D01*
X116782885Y-94111819D01*
X115643333Y-87777619D02*
X115643333Y-88777619D01*
X115262380Y-88777619D01*
X115167142Y-88730000D01*
X115119523Y-88682380D01*
X115071904Y-88587142D01*
X115071904Y-88444285D01*
X115119523Y-88349047D01*
X115167142Y-88301428D01*
X115262380Y-88253809D01*
X115643333Y-88253809D01*
X114214761Y-88444285D02*
X114214761Y-87777619D01*
X114643333Y-88444285D02*
X114643333Y-87920476D01*
X114595714Y-87825238D01*
X114500476Y-87777619D01*
X114357619Y-87777619D01*
X114262380Y-87825238D01*
X114214761Y-87872857D01*
X113881428Y-88444285D02*
X113500476Y-88444285D01*
X113738571Y-88777619D02*
X113738571Y-87920476D01*
X113690952Y-87825238D01*
X113595714Y-87777619D01*
X113500476Y-87777619D01*
X112405238Y-88301428D02*
X112071904Y-88301428D01*
X111929047Y-87777619D02*
X112405238Y-87777619D01*
X112405238Y-88777619D01*
X111929047Y-88777619D01*
X111548095Y-87825238D02*
X111405238Y-87777619D01*
X111167142Y-87777619D01*
X111071904Y-87825238D01*
X111024285Y-87872857D01*
X110976666Y-87968095D01*
X110976666Y-88063333D01*
X111024285Y-88158571D01*
X111071904Y-88206190D01*
X111167142Y-88253809D01*
X111357619Y-88301428D01*
X111452857Y-88349047D01*
X111500476Y-88396666D01*
X111548095Y-88491904D01*
X111548095Y-88587142D01*
X111500476Y-88682380D01*
X111452857Y-88730000D01*
X111357619Y-88777619D01*
X111119523Y-88777619D01*
X110976666Y-88730000D01*
X110548095Y-87777619D02*
X110548095Y-88777619D01*
X110167142Y-88777619D01*
X110071904Y-88730000D01*
X110024285Y-88682380D01*
X109976666Y-88587142D01*
X109976666Y-88444285D01*
X110024285Y-88349047D01*
X110071904Y-88301428D01*
X110167142Y-88253809D01*
X110548095Y-88253809D01*
X108786190Y-87777619D02*
X108786190Y-88777619D01*
X108452857Y-88063333D01*
X108119523Y-88777619D01*
X108119523Y-87777619D01*
X107500476Y-87777619D02*
X107595714Y-87825238D01*
X107643333Y-87872857D01*
X107690952Y-87968095D01*
X107690952Y-88253809D01*
X107643333Y-88349047D01*
X107595714Y-88396666D01*
X107500476Y-88444285D01*
X107357619Y-88444285D01*
X107262380Y-88396666D01*
X107214761Y-88349047D01*
X107167142Y-88253809D01*
X107167142Y-87968095D01*
X107214761Y-87872857D01*
X107262380Y-87825238D01*
X107357619Y-87777619D01*
X107500476Y-87777619D01*
X106310000Y-87777619D02*
X106310000Y-88777619D01*
X106310000Y-87825238D02*
X106405238Y-87777619D01*
X106595714Y-87777619D01*
X106690952Y-87825238D01*
X106738571Y-87872857D01*
X106786190Y-87968095D01*
X106786190Y-88253809D01*
X106738571Y-88349047D01*
X106690952Y-88396666D01*
X106595714Y-88444285D01*
X106405238Y-88444285D01*
X106310000Y-88396666D01*
X105405238Y-88444285D02*
X105405238Y-87777619D01*
X105833809Y-88444285D02*
X105833809Y-87920476D01*
X105786190Y-87825238D01*
X105690952Y-87777619D01*
X105548095Y-87777619D01*
X105452857Y-87825238D01*
X105405238Y-87872857D01*
X104786190Y-87777619D02*
X104881428Y-87825238D01*
X104929047Y-87920476D01*
X104929047Y-88777619D01*
X104024285Y-87825238D02*
X104119523Y-87777619D01*
X104310000Y-87777619D01*
X104405238Y-87825238D01*
X104452857Y-87920476D01*
X104452857Y-88301428D01*
X104405238Y-88396666D01*
X104310000Y-88444285D01*
X104119523Y-88444285D01*
X104024285Y-88396666D01*
X103976666Y-88301428D01*
X103976666Y-88206190D01*
X104452857Y-88110952D01*
X102786190Y-87777619D02*
X102786190Y-88777619D01*
X102786190Y-88301428D02*
X102214761Y-88301428D01*
X102214761Y-87777619D02*
X102214761Y-88777619D01*
X101357619Y-87825238D02*
X101452857Y-87777619D01*
X101643333Y-87777619D01*
X101738571Y-87825238D01*
X101786190Y-87920476D01*
X101786190Y-88301428D01*
X101738571Y-88396666D01*
X101643333Y-88444285D01*
X101452857Y-88444285D01*
X101357619Y-88396666D01*
X101310000Y-88301428D01*
X101310000Y-88206190D01*
X101786190Y-88110952D01*
X100881428Y-87777619D02*
X100881428Y-88444285D01*
X100881428Y-88253809D02*
X100833809Y-88349047D01*
X100786190Y-88396666D01*
X100690952Y-88444285D01*
X100595714Y-88444285D01*
X99881428Y-87825238D02*
X99976666Y-87777619D01*
X100167142Y-87777619D01*
X100262380Y-87825238D01*
X100310000Y-87920476D01*
X100310000Y-88301428D01*
X100262380Y-88396666D01*
X100167142Y-88444285D01*
X99976666Y-88444285D01*
X99881428Y-88396666D01*
X99833809Y-88301428D01*
X99833809Y-88206190D01*
X100310000Y-88110952D01*
X98643333Y-87872857D02*
X98595714Y-87825238D01*
X98643333Y-87777619D01*
X98690952Y-87825238D01*
X98643333Y-87872857D01*
X98643333Y-87777619D01*
X98643333Y-88396666D02*
X98595714Y-88349047D01*
X98643333Y-88301428D01*
X98690952Y-88349047D01*
X98643333Y-88396666D01*
X98643333Y-88301428D01*
X98262380Y-87396666D02*
X98214761Y-87444285D01*
X98119523Y-87587142D01*
X98071904Y-87682380D01*
X98024285Y-87825238D01*
X97976666Y-88063333D01*
X97976666Y-88253809D01*
X98024285Y-88491904D01*
X98071904Y-88634761D01*
X98119523Y-88730000D01*
X98214761Y-88872857D01*
X98262380Y-88920476D01*
X164728571Y-102433333D02*
X164728571Y-102766666D01*
X165252380Y-102766666D02*
X164252380Y-102766666D01*
X164252380Y-102290476D01*
X165252380Y-101385714D02*
X165252380Y-101957142D01*
X165252380Y-101671428D02*
X164252380Y-101671428D01*
X164395238Y-101766666D01*
X164490476Y-101861904D01*
X164538095Y-101957142D01*
X158004000Y-111805980D02*
X158004000Y-110805980D01*
X158384952Y-110805980D01*
X158480190Y-110853600D01*
X158527809Y-110901219D01*
X158575428Y-110996457D01*
X158575428Y-111139314D01*
X158527809Y-111234552D01*
X158480190Y-111282171D01*
X158384952Y-111329790D01*
X158004000Y-111329790D01*
X159004000Y-111805980D02*
X159004000Y-110805980D01*
X160051619Y-111805980D02*
X159718285Y-111329790D01*
X159480190Y-111805980D02*
X159480190Y-110805980D01*
X159861142Y-110805980D01*
X159956380Y-110853600D01*
X160004000Y-110901219D01*
X160051619Y-110996457D01*
X160051619Y-111139314D01*
X160004000Y-111234552D01*
X159956380Y-111282171D01*
X159861142Y-111329790D01*
X159480190Y-111329790D01*
X166685933Y-84202542D02*
X166638314Y-84250161D01*
X166495457Y-84297780D01*
X166400219Y-84297780D01*
X166257361Y-84250161D01*
X166162123Y-84154923D01*
X166114504Y-84059685D01*
X166066885Y-83869209D01*
X166066885Y-83726352D01*
X166114504Y-83535876D01*
X166162123Y-83440638D01*
X166257361Y-83345400D01*
X166400219Y-83297780D01*
X166495457Y-83297780D01*
X166638314Y-83345400D01*
X166685933Y-83393019D01*
X167543076Y-83297780D02*
X167352600Y-83297780D01*
X167257361Y-83345400D01*
X167209742Y-83393019D01*
X167114504Y-83535876D01*
X167066885Y-83726352D01*
X167066885Y-84107304D01*
X167114504Y-84202542D01*
X167162123Y-84250161D01*
X167257361Y-84297780D01*
X167447838Y-84297780D01*
X167543076Y-84250161D01*
X167590695Y-84202542D01*
X167638314Y-84107304D01*
X167638314Y-83869209D01*
X167590695Y-83773971D01*
X167543076Y-83726352D01*
X167447838Y-83678733D01*
X167257361Y-83678733D01*
X167162123Y-83726352D01*
X167114504Y-83773971D01*
X167066885Y-83869209D01*
X125147342Y-68740257D02*
X125194961Y-68787876D01*
X125242580Y-68930733D01*
X125242580Y-69025971D01*
X125194961Y-69168828D01*
X125099723Y-69264066D01*
X125004485Y-69311685D01*
X124814009Y-69359304D01*
X124671152Y-69359304D01*
X124480676Y-69311685D01*
X124385438Y-69264066D01*
X124290200Y-69168828D01*
X124242580Y-69025971D01*
X124242580Y-68930733D01*
X124290200Y-68787876D01*
X124337819Y-68740257D01*
X124337819Y-68359304D02*
X124290200Y-68311685D01*
X124242580Y-68216447D01*
X124242580Y-67978352D01*
X124290200Y-67883114D01*
X124337819Y-67835495D01*
X124433057Y-67787876D01*
X124528295Y-67787876D01*
X124671152Y-67835495D01*
X125242580Y-68406923D01*
X125242580Y-67787876D01*
X124242580Y-67454542D02*
X124242580Y-66835495D01*
X124623533Y-67168828D01*
X124623533Y-67025971D01*
X124671152Y-66930733D01*
X124718771Y-66883114D01*
X124814009Y-66835495D01*
X125052104Y-66835495D01*
X125147342Y-66883114D01*
X125194961Y-66930733D01*
X125242580Y-67025971D01*
X125242580Y-67311685D01*
X125194961Y-67406923D01*
X125147342Y-67454542D01*
X120497695Y-69276980D02*
X120497695Y-70086504D01*
X120545314Y-70181742D01*
X120592933Y-70229361D01*
X120688171Y-70276980D01*
X120878647Y-70276980D01*
X120973885Y-70229361D01*
X121021504Y-70181742D01*
X121069123Y-70086504D01*
X121069123Y-69276980D01*
X121450076Y-69276980D02*
X122069123Y-69276980D01*
X121735790Y-69657933D01*
X121878647Y-69657933D01*
X121973885Y-69705552D01*
X122021504Y-69753171D01*
X122069123Y-69848409D01*
X122069123Y-70086504D01*
X122021504Y-70181742D01*
X121973885Y-70229361D01*
X121878647Y-70276980D01*
X121592933Y-70276980D01*
X121497695Y-70229361D01*
X121450076Y-70181742D01*
X117830000Y-66320000D02*
X119380000Y-66320000D01*
X168910000Y-60960000D02*
X168910000Y-66040000D01*
X117830000Y-64770000D02*
X117830000Y-66320000D01*
X120650000Y-66040000D02*
X168910000Y-66040000D01*
X118110000Y-63500000D02*
X120650000Y-63500000D01*
X120650000Y-63500000D02*
X120650000Y-66040000D01*
X168910000Y-60960000D02*
X118110000Y-60960000D01*
X118110000Y-60960000D02*
X118110000Y-63500000D01*
D11*
X148843276Y-96378500D02*
X149352724Y-96378500D01*
X148843276Y-97423500D02*
X149352724Y-97423500D01*
X127295800Y-70000800D02*
X129755800Y-70000800D01*
X127295800Y-68530800D02*
X127295800Y-70000800D01*
X129755800Y-68530800D02*
X127295800Y-68530800D01*
X111954000Y-101600000D02*
X114614000Y-101600000D01*
X111954000Y-101600000D02*
X111954000Y-106740000D01*
X111954000Y-99000000D02*
X113284000Y-99000000D01*
X114614000Y-101600000D02*
X114614000Y-106740000D01*
X111954000Y-100330000D02*
X111954000Y-99000000D01*
X111954000Y-106740000D02*
X114614000Y-106740000D01*
X121925000Y-115122000D02*
X132145000Y-115122000D01*
X119325000Y-115122000D02*
X119325000Y-113792000D01*
X121925000Y-112462000D02*
X132145000Y-112462000D01*
X120655000Y-115122000D02*
X119325000Y-115122000D01*
X121925000Y-115122000D02*
X121925000Y-112462000D01*
X132145000Y-115122000D02*
X132145000Y-112462000D01*
X139705000Y-115122000D02*
X138375000Y-115122000D01*
X140975000Y-115122000D02*
X151195000Y-115122000D01*
X138375000Y-115122000D02*
X138375000Y-113792000D01*
X140975000Y-112462000D02*
X151195000Y-112462000D01*
X140975000Y-115122000D02*
X140975000Y-112462000D01*
X151195000Y-115122000D02*
X151195000Y-112462000D01*
X118371252Y-67210000D02*
X117848748Y-67210000D01*
X118371252Y-68680000D02*
X117848748Y-68680000D01*
X137321800Y-76395749D02*
X132019800Y-76395749D01*
X137015800Y-76635749D02*
X132325800Y-76635749D01*
X133630800Y-73995749D02*
X130653800Y-73995749D01*
X138520800Y-74635749D02*
X135710800Y-74635749D01*
X133630800Y-74355749D02*
X130734800Y-74355749D01*
X133630800Y-74995749D02*
X130966800Y-74995749D01*
X133630800Y-75515749D02*
X131252800Y-75515749D01*
X138336800Y-75075749D02*
X135710800Y-75075749D01*
X138276800Y-75195749D02*
X135710800Y-75195749D01*
X136957800Y-76675749D02*
X132383800Y-76675749D01*
X138088800Y-75515749D02*
X135710800Y-75515749D01*
X136772800Y-76795749D02*
X132568800Y-76795749D01*
X136836800Y-76755749D02*
X132504800Y-76755749D01*
X137537800Y-76195749D02*
X131803800Y-76195749D01*
X138533800Y-74595749D02*
X135710800Y-74595749D01*
X138444800Y-74835749D02*
X135710800Y-74835749D01*
X136560800Y-76915749D02*
X132780800Y-76915749D01*
X136315800Y-77035749D02*
X133025800Y-77035749D01*
X133630800Y-74555749D02*
X130793800Y-74555749D01*
X138254800Y-75235749D02*
X135710800Y-75235749D01*
X137226800Y-76475749D02*
X132114800Y-76475749D01*
X133630800Y-75355749D02*
X131153800Y-75355749D01*
X138317800Y-75115749D02*
X135710800Y-75115749D01*
X133630800Y-74475749D02*
X130768800Y-74475749D01*
X133630800Y-74315749D02*
X130723800Y-74315749D01*
X133630800Y-75635749D02*
X131332800Y-75635749D01*
X133630800Y-74075749D02*
X130668800Y-74075749D01*
X138427800Y-74875749D02*
X135710800Y-74875749D01*
X133630800Y-75835749D02*
X131481800Y-75835749D01*
X133630800Y-75115749D02*
X131023800Y-75115749D01*
X133630800Y-75155749D02*
X131043800Y-75155749D01*
X138664800Y-74115749D02*
X135710800Y-74115749D01*
X133630800Y-74275749D02*
X130713800Y-74275749D01*
X138559800Y-74515749D02*
X135710800Y-74515749D01*
X138637800Y-74235749D02*
X135710800Y-74235749D01*
X133630800Y-74395749D02*
X130745800Y-74395749D01*
X138475800Y-74755749D02*
X135710800Y-74755749D01*
X137920800Y-75755749D02*
X135710800Y-75755749D01*
X133630800Y-74035749D02*
X130660800Y-74035749D01*
X138547800Y-74555749D02*
X135710800Y-74555749D01*
X138646800Y-74195749D02*
X135710800Y-74195749D01*
X133630800Y-74835749D02*
X130896800Y-74835749D01*
X137615800Y-76115749D02*
X131725800Y-76115749D01*
X136483800Y-76955749D02*
X132857800Y-76955749D01*
X138741800Y-73554749D02*
X130599800Y-73554749D01*
X138750800Y-73354749D02*
X130590800Y-73354749D01*
X136898800Y-76715749D02*
X132442800Y-76715749D01*
X133630800Y-75235749D02*
X131086800Y-75235749D01*
X138163800Y-75395749D02*
X135710800Y-75395749D01*
X138062800Y-75555749D02*
X135710800Y-75555749D01*
X137124800Y-76555749D02*
X132216800Y-76555749D01*
X138735800Y-73634749D02*
X130605800Y-73634749D01*
X135899800Y-77195749D02*
X133441800Y-77195749D01*
X138672800Y-74075749D02*
X135710800Y-74075749D01*
X133630800Y-75475749D02*
X131226800Y-75475749D01*
X136401800Y-76995749D02*
X132939800Y-76995749D01*
X138505800Y-74675749D02*
X135710800Y-74675749D01*
X133630800Y-75875749D02*
X131514800Y-75875749D01*
X133630800Y-76035749D02*
X131651800Y-76035749D01*
X138750800Y-73314749D02*
X130590800Y-73314749D01*
X138035800Y-75595749D02*
X135710800Y-75595749D01*
X138744800Y-73514749D02*
X130596800Y-73514749D01*
X138392800Y-74955749D02*
X135710800Y-74955749D01*
X133630800Y-75675749D02*
X131361800Y-75675749D01*
X138210800Y-75315749D02*
X135710800Y-75315749D01*
X138374800Y-74995749D02*
X135710800Y-74995749D01*
X137175800Y-76515749D02*
X132165800Y-76515749D01*
X138595800Y-74395749D02*
X135710800Y-74395749D01*
X133630800Y-74795749D02*
X130880800Y-74795749D01*
X133630800Y-75395749D02*
X131177800Y-75395749D01*
X138356800Y-75035749D02*
X135710800Y-75035749D01*
X138606800Y-74355749D02*
X135710800Y-74355749D01*
X133630800Y-75915749D02*
X131546800Y-75915749D01*
X138712800Y-73834749D02*
X130628800Y-73834749D01*
X137760800Y-75955749D02*
X135710800Y-75955749D01*
X137577800Y-76155749D02*
X131763800Y-76155749D01*
X133630800Y-74635749D02*
X130820800Y-74635749D01*
X135768800Y-77235749D02*
X133572800Y-77235749D01*
X138747800Y-73434749D02*
X130593800Y-73434749D01*
X133630800Y-74155749D02*
X130685800Y-74155749D01*
X133630800Y-74435749D02*
X130756800Y-74435749D01*
X137794800Y-75915749D02*
X135710800Y-75915749D01*
X138731800Y-73674749D02*
X130609800Y-73674749D01*
X136634800Y-76875749D02*
X132706800Y-76875749D01*
X138722800Y-73754749D02*
X130618800Y-73754749D01*
X137890800Y-75795749D02*
X135710800Y-75795749D01*
X138572800Y-74475749D02*
X135710800Y-74475749D01*
X133630800Y-74875749D02*
X130913800Y-74875749D01*
X133630800Y-74595749D02*
X130807800Y-74595749D01*
X137496800Y-76235749D02*
X131844800Y-76235749D01*
X133630800Y-75995749D02*
X131615800Y-75995749D01*
X133630800Y-75195749D02*
X131064800Y-75195749D01*
X138617800Y-74315749D02*
X135710800Y-74315749D01*
X135203800Y-77355749D02*
X134137800Y-77355749D01*
X137725800Y-75995749D02*
X135710800Y-75995749D01*
X137411800Y-76315749D02*
X131929800Y-76315749D01*
X138655800Y-74155749D02*
X135710800Y-74155749D01*
X138746800Y-73474749D02*
X130594800Y-73474749D01*
X133630800Y-74675749D02*
X130835800Y-74675749D01*
X133630800Y-75275749D02*
X131108800Y-75275749D01*
X137689800Y-76035749D02*
X135710800Y-76035749D01*
X138460800Y-74795749D02*
X135710800Y-74795749D01*
X133630800Y-75555749D02*
X131278800Y-75555749D01*
X137385800Y-69265051D02*
X136585800Y-69265051D01*
X133630800Y-74235749D02*
X130703800Y-74235749D01*
X138114800Y-75475749D02*
X135710800Y-75475749D01*
X136123800Y-77115749D02*
X133217800Y-77115749D01*
X138491800Y-74715749D02*
X135710800Y-74715749D01*
X135618800Y-77275749D02*
X133722800Y-77275749D01*
X138749800Y-73394749D02*
X130591800Y-73394749D01*
X133630800Y-74915749D02*
X130930800Y-74915749D01*
X138694800Y-73954749D02*
X130646800Y-73954749D01*
X133630800Y-75315749D02*
X131130800Y-75315749D01*
X133630800Y-75435749D02*
X131201800Y-75435749D01*
X135438800Y-77315749D02*
X133902800Y-77315749D01*
X133630800Y-74195749D02*
X130694800Y-74195749D01*
X138410800Y-74915749D02*
X135710800Y-74915749D01*
X138750800Y-73274749D02*
X130590800Y-73274749D01*
X133630800Y-75755749D02*
X131420800Y-75755749D01*
X138187800Y-75355749D02*
X135710800Y-75355749D01*
X137859800Y-75835749D02*
X135710800Y-75835749D01*
X133630800Y-75715749D02*
X131390800Y-75715749D01*
X133630800Y-75075749D02*
X131004800Y-75075749D01*
X136704800Y-76835749D02*
X132636800Y-76835749D01*
X138707800Y-73874749D02*
X130633800Y-73874749D01*
X138584800Y-74435749D02*
X135710800Y-74435749D01*
X133630800Y-74515749D02*
X130781800Y-74515749D01*
X136222800Y-77075749D02*
X133118800Y-77075749D01*
X138139800Y-75435749D02*
X135710800Y-75435749D01*
X138727800Y-73714749D02*
X130613800Y-73714749D01*
X133630800Y-74955749D02*
X130948800Y-74955749D01*
X137367800Y-76355749D02*
X131973800Y-76355749D01*
X133630800Y-75955749D02*
X131580800Y-75955749D01*
X137826800Y-75875749D02*
X135710800Y-75875749D01*
X138738800Y-73594749D02*
X130602800Y-73594749D01*
X138008800Y-75635749D02*
X135710800Y-75635749D01*
X138232800Y-75275749D02*
X135710800Y-75275749D01*
X133630800Y-75795749D02*
X131450800Y-75795749D01*
X138297800Y-75155749D02*
X135710800Y-75155749D01*
X137979800Y-75675749D02*
X135710800Y-75675749D01*
X138680800Y-74035749D02*
X135710800Y-74035749D01*
X137653800Y-76075749D02*
X131687800Y-76075749D01*
X138718800Y-73794749D02*
X130622800Y-73794749D01*
X133630800Y-75035749D02*
X130984800Y-75035749D01*
X137454800Y-76275749D02*
X131886800Y-76275749D01*
X133630800Y-74115749D02*
X130676800Y-74115749D01*
X137950800Y-75715749D02*
X135710800Y-75715749D01*
X133630800Y-74715749D02*
X130849800Y-74715749D01*
X138627800Y-74275749D02*
X135710800Y-74275749D01*
X137274800Y-76435749D02*
X132066800Y-76435749D01*
X133630800Y-75595749D02*
X131305800Y-75595749D01*
X136016800Y-77155749D02*
X133324800Y-77155749D01*
X133630800Y-74755749D02*
X130865800Y-74755749D01*
X137070800Y-76595749D02*
X132270800Y-76595749D01*
X138687800Y-73995749D02*
X135710800Y-73995749D01*
X136985800Y-68865051D02*
X136985800Y-69665051D01*
X138700800Y-73914749D02*
X130640800Y-73914749D01*
X138790800Y-73274749D02*
G75*
G03*
X138790800Y-73274749I-4120000J0D01*
G01*
X157961000Y-91940748D02*
X157961000Y-92463252D01*
X156491000Y-91940748D02*
X156491000Y-92463252D01*
X141818000Y-92091000D02*
X145668000Y-92091000D01*
X141818000Y-94091000D02*
X145668000Y-94091000D01*
X141818000Y-92091000D02*
X141818000Y-94091000D01*
X173230000Y-78695733D02*
X173230000Y-79038267D01*
X172210000Y-78695733D02*
X172210000Y-79038267D01*
X140678000Y-88873000D02*
X143138000Y-88873000D01*
X143138000Y-88873000D02*
X143138000Y-87403000D01*
X143138000Y-87403000D02*
X140678000Y-87403000D01*
X130340000Y-77370000D02*
X127880000Y-77370000D01*
X127880000Y-77370000D02*
X127880000Y-78840000D01*
X127880000Y-78840000D02*
X130340000Y-78840000D01*
X118297000Y-72390000D02*
X118297000Y-77530000D01*
X115637000Y-77530000D02*
X118297000Y-77530000D01*
X115637000Y-71120000D02*
X115637000Y-69790000D01*
X115637000Y-72390000D02*
X118297000Y-72390000D01*
X115637000Y-72390000D02*
X115637000Y-77530000D01*
X115637000Y-69790000D02*
X116967000Y-69790000D01*
X135663000Y-82305000D02*
X137133000Y-82305000D01*
X137133000Y-82305000D02*
X137133000Y-79845000D01*
X135663000Y-79845000D02*
X135663000Y-82305000D01*
X125780076Y-85714100D02*
X126289524Y-85714100D01*
X125780076Y-84669100D02*
X126289524Y-84669100D01*
X119848352Y-80799000D02*
X119325848Y-80799000D01*
X119848352Y-82269000D02*
X119325848Y-82269000D01*
X165301248Y-105885000D02*
X165823752Y-105885000D01*
X165301248Y-104415000D02*
X165823752Y-104415000D01*
X134040000Y-92765000D02*
X134040000Y-92735000D01*
X134040000Y-88235000D02*
X134040000Y-90835000D01*
X134040000Y-86305000D02*
X134040000Y-86335000D01*
X127580000Y-86335000D02*
X127580000Y-86305000D01*
X127580000Y-92765000D02*
X127580000Y-92735000D01*
X127580000Y-92765000D02*
X134040000Y-92765000D01*
X127580000Y-88235000D02*
X127580000Y-90835000D01*
X127580000Y-86305000D02*
X134040000Y-86305000D01*
X111954000Y-69790000D02*
X113284000Y-69790000D01*
X111954000Y-72390000D02*
X111954000Y-77530000D01*
X111954000Y-77530000D02*
X114614000Y-77530000D01*
X111954000Y-71120000D02*
X111954000Y-69790000D01*
X114614000Y-72390000D02*
X114614000Y-77530000D01*
X111954000Y-72390000D02*
X114614000Y-72390000D01*
X115637000Y-106740000D02*
X118297000Y-106740000D01*
X115637000Y-101600000D02*
X118297000Y-101600000D01*
X115637000Y-99000000D02*
X116967000Y-99000000D01*
X115637000Y-101600000D02*
X115637000Y-106740000D01*
X115637000Y-100330000D02*
X115637000Y-99000000D01*
X118297000Y-101600000D02*
X118297000Y-106740000D01*
X175452000Y-79756000D02*
G75*
G03*
X175452000Y-79756000I-700000J0D01*
G01*
X164050000Y-67430000D02*
X164050000Y-70189000D01*
X166932000Y-72371000D02*
X167409000Y-72371000D01*
X160650000Y-70189000D02*
X171150000Y-70189000D01*
X160650000Y-67430000D02*
X160650000Y-72371000D01*
X160650000Y-72371000D02*
X162329000Y-72371000D01*
X169710000Y-72371000D02*
X169710000Y-74685000D01*
X171150000Y-67430000D02*
X171150000Y-72371000D01*
X164630000Y-72371000D02*
X164630000Y-74685000D01*
X169472000Y-72371000D02*
X171150000Y-72371000D01*
X164392000Y-72371000D02*
X164869000Y-72371000D01*
X162090000Y-72371000D02*
X162090000Y-74701000D01*
X160650000Y-67430000D02*
X171150000Y-67430000D01*
X167170000Y-72371000D02*
X167170000Y-74685000D01*
X167750000Y-67430000D02*
X167750000Y-70189000D01*
X135294600Y-80035400D02*
G75*
G03*
X135294600Y-80035400I-700000J0D01*
G01*
X170855000Y-77685000D02*
X170855000Y-82326000D01*
X167586000Y-77685000D02*
X167586000Y-79195000D01*
X160615000Y-77685000D02*
X170855000Y-77685000D01*
X160615000Y-77685000D02*
X160615000Y-82326000D01*
X160615000Y-79195000D02*
X170855000Y-79195000D01*
X160615000Y-82326000D02*
X170855000Y-82326000D01*
X163885000Y-77685000D02*
X163885000Y-79195000D01*
X141732724Y-89901500D02*
X141223276Y-89901500D01*
X141732724Y-90946500D02*
X141223276Y-90946500D01*
X132107000Y-79845000D02*
X132107000Y-82305000D01*
X132107000Y-82305000D02*
X133577000Y-82305000D01*
X133577000Y-82305000D02*
X133577000Y-79845000D01*
X130702267Y-102618000D02*
X130409733Y-102618000D01*
X130702267Y-101598000D02*
X130409733Y-101598000D01*
X172279000Y-71135000D02*
X174939000Y-71135000D01*
X172279000Y-76275000D02*
X174939000Y-76275000D01*
X172279000Y-68535000D02*
X173609000Y-68535000D01*
X174939000Y-71135000D02*
X174939000Y-76275000D01*
X172279000Y-69865000D02*
X172279000Y-68535000D01*
X172279000Y-71135000D02*
X172279000Y-76275000D01*
X129278748Y-111225000D02*
X129801252Y-111225000D01*
X129278748Y-109755000D02*
X129801252Y-109755000D01*
X114314200Y-68021200D02*
G75*
G03*
X114314200Y-68021200I-700000J0D01*
G01*
X159860000Y-86835000D02*
X139860000Y-86835000D01*
X139860000Y-86835000D02*
X139860000Y-66835000D01*
X139860000Y-66835000D02*
X159860000Y-66835000D01*
X159860000Y-66835000D02*
X159860000Y-86835000D01*
X173720000Y-82866000D02*
G75*
G03*
X173020000Y-82166000I-699999J1D01*
G01*
X173020000Y-84966000D02*
G75*
G03*
X173720000Y-84266000I0J700000D01*
G01*
X172420000Y-82166000D02*
G75*
G03*
X171720000Y-82866000I-1J-699999D01*
G01*
X171720000Y-84266000D02*
G75*
G03*
X172420000Y-84966000I700000J0D01*
G01*
X172420000Y-82166000D02*
X173020000Y-82166000D01*
X173720000Y-82866000D02*
X173720000Y-84266000D01*
X171720000Y-84266000D02*
X171720000Y-82866000D01*
X173020000Y-84966000D02*
X172420000Y-84966000D01*
X124070000Y-105565000D02*
X124070000Y-98265000D01*
X119770000Y-105565000D02*
X124070000Y-105565000D01*
X119770000Y-105565000D02*
X119770000Y-98265000D01*
X148951733Y-94740000D02*
X149244267Y-94740000D01*
X148951733Y-95760000D02*
X149244267Y-95760000D01*
X133857276Y-102630500D02*
X134366724Y-102630500D01*
X133857276Y-101585500D02*
X134366724Y-101585500D01*
X175198000Y-99060000D02*
G75*
G03*
X175198000Y-99060000I-700000J0D01*
G01*
X127580000Y-101020000D02*
X127580000Y-100990000D01*
X134040000Y-94560000D02*
X127580000Y-94560000D01*
X134040000Y-100990000D02*
X134040000Y-101020000D01*
X127580000Y-99090000D02*
X127580000Y-96490000D01*
X134040000Y-99090000D02*
X134040000Y-96490000D01*
X134040000Y-94560000D02*
X134040000Y-94590000D01*
X134040000Y-101020000D02*
X127580000Y-101020000D01*
X127580000Y-94560000D02*
X127580000Y-94590000D01*
X175274200Y-87249000D02*
G75*
G03*
X175274200Y-87249000I-700000J0D01*
G01*
X153294000Y-94088000D02*
X153294000Y-92828000D01*
X153294000Y-87268000D02*
X153294000Y-88528000D01*
X149534000Y-94088000D02*
X153294000Y-94088000D01*
X147284000Y-87268000D02*
X153294000Y-87268000D01*
X160650000Y-109600000D02*
G75*
G03*
X160650000Y-109600000I-700000J0D01*
G01*
X139622200Y-107458400D02*
X138152200Y-107458400D01*
X139622200Y-109918400D02*
X139622200Y-107458400D01*
X138152200Y-107458400D02*
X138152200Y-109918400D01*
X148096248Y-109755000D02*
X148618752Y-109755000D01*
X148096248Y-111225000D02*
X148618752Y-111225000D01*
X119380000Y-90860000D02*
X119380000Y-93460000D01*
X121980000Y-93460000D02*
X121980000Y-83180000D01*
X116780000Y-92130000D02*
X116780000Y-93460000D01*
X116780000Y-90860000D02*
X119380000Y-90860000D01*
X119380000Y-93460000D02*
X121980000Y-93460000D01*
X116780000Y-83180000D02*
X121980000Y-83180000D01*
X116780000Y-90860000D02*
X116780000Y-83180000D01*
X116780000Y-93460000D02*
X118110000Y-93460000D01*
X122435000Y-95480000D02*
X97685000Y-95480000D01*
X97685000Y-95480000D02*
X97685000Y-80980000D01*
X97685000Y-80980000D02*
X122435000Y-80980000D01*
X122435000Y-80980000D02*
X122435000Y-95480000D01*
X167303267Y-102872000D02*
X166960733Y-102872000D01*
X167303267Y-101852000D02*
X166960733Y-101852000D01*
X160487200Y-115122000D02*
X168167200Y-115122000D01*
X159217200Y-115122000D02*
X157887200Y-115122000D01*
X168167200Y-115122000D02*
X168167200Y-112462000D01*
X160487200Y-112462000D02*
X168167200Y-112462000D01*
X160487200Y-115122000D02*
X160487200Y-112462000D01*
X157887200Y-115122000D02*
X157887200Y-113792000D01*
X173268000Y-97654246D02*
X168318000Y-97654246D01*
X165438000Y-96974246D02*
X160017000Y-96974246D01*
X174807000Y-94254246D02*
X158949000Y-94254246D01*
X173714000Y-97014246D02*
X168318000Y-97014246D01*
X173007000Y-97974246D02*
X160749000Y-97974246D01*
X165438000Y-95174246D02*
X159185000Y-95174246D01*
X171433000Y-84003755D02*
X171433000Y-85603755D01*
X171937000Y-99014246D02*
X161819000Y-99014246D01*
X165438000Y-96774246D02*
X159897000Y-96774246D01*
X165438000Y-95014246D02*
X159136000Y-95014246D01*
X172266000Y-98734246D02*
X161490000Y-98734246D01*
X165438000Y-97774246D02*
X160583000Y-97774246D01*
X170181000Y-100094246D02*
X163575000Y-100094246D01*
X165438000Y-95134246D02*
X159173000Y-95134246D01*
X173298000Y-97614246D02*
X168318000Y-97614246D01*
X169229000Y-100454246D02*
X164527000Y-100454246D01*
X174688000Y-94774246D02*
X159068000Y-94774246D01*
X174212000Y-96094246D02*
X168318000Y-96094246D01*
X165438000Y-95734246D02*
X159388000Y-95734246D01*
X165438000Y-96814246D02*
X159920000Y-96814246D01*
X173328000Y-97574246D02*
X168318000Y-97574246D01*
X170353000Y-100014246D02*
X163403000Y-100014246D01*
X174933000Y-93333246D02*
X158823000Y-93333246D01*
X174857000Y-93974246D02*
X158899000Y-93974246D01*
X174531000Y-95294246D02*
X168318000Y-95294246D01*
X173788000Y-96894246D02*
X168318000Y-96894246D01*
X174431000Y-95574246D02*
X168318000Y-95574246D01*
X174791000Y-94334246D02*
X158965000Y-94334246D01*
X165438000Y-97134246D02*
X160119000Y-97134246D01*
X174923000Y-93454246D02*
X158833000Y-93454246D01*
X165438000Y-96054246D02*
X159525000Y-96054246D01*
X171624000Y-99254246D02*
X162132000Y-99254246D01*
X174958000Y-92733246D02*
X158798000Y-92733246D01*
X174136000Y-96254246D02*
X168318000Y-96254246D01*
X169475000Y-100374246D02*
X164281000Y-100374246D01*
X165438000Y-96494246D02*
X159742000Y-96494246D01*
X173859000Y-96774246D02*
X168318000Y-96774246D01*
X174596000Y-95094246D02*
X168318000Y-95094246D01*
X171455000Y-99374246D02*
X162301000Y-99374246D01*
X174915000Y-93534246D02*
X158841000Y-93534246D01*
X174097000Y-96334246D02*
X168318000Y-96334246D01*
X174902000Y-93654246D02*
X158854000Y-93654246D01*
X165438000Y-97334246D02*
X160254000Y-97334246D01*
X173663000Y-97094246D02*
X168318000Y-97094246D01*
X174655000Y-94894246D02*
X159101000Y-94894246D01*
X174886000Y-93774246D02*
X158870000Y-93774246D01*
X165438000Y-96854246D02*
X159944000Y-96854246D01*
X172082000Y-98894246D02*
X161674000Y-98894246D01*
X170814000Y-99774246D02*
X162942000Y-99774246D01*
X165438000Y-97494246D02*
X160368000Y-97494246D01*
X172938000Y-98054246D02*
X160818000Y-98054246D01*
X171214000Y-99534246D02*
X162542000Y-99534246D01*
X173388000Y-97494246D02*
X168318000Y-97494246D01*
X174892000Y-93734246D02*
X158864000Y-93734246D01*
X174850000Y-94014246D02*
X158906000Y-94014246D01*
X165438000Y-95214246D02*
X159198000Y-95214246D01*
X174014000Y-96494246D02*
X168318000Y-96494246D01*
X174875000Y-93854246D02*
X158881000Y-93854246D01*
X170742000Y-99814246D02*
X163014000Y-99814246D01*
X165438000Y-97454246D02*
X160339000Y-97454246D01*
X174415000Y-95614246D02*
X168318000Y-95614246D01*
X172034000Y-98934246D02*
X161722000Y-98934246D01*
X173950000Y-96614246D02*
X168318000Y-96614246D01*
X165438000Y-95614246D02*
X159341000Y-95614246D01*
X173417000Y-97454246D02*
X168318000Y-97454246D01*
X174632000Y-94974246D02*
X159124000Y-94974246D01*
X165438000Y-95934246D02*
X159472000Y-95934246D01*
X174352000Y-95774246D02*
X168318000Y-95774246D01*
X165438000Y-97614246D02*
X160458000Y-97614246D01*
X165438000Y-95694246D02*
X159372000Y-95694246D01*
X171276000Y-99494246D02*
X162480000Y-99494246D01*
X174035000Y-96454246D02*
X168318000Y-96454246D01*
X171678000Y-99214246D02*
X162078000Y-99214246D01*
X173927000Y-96654246D02*
X168318000Y-96654246D01*
X165438000Y-97574246D02*
X160428000Y-97574246D01*
X169902000Y-100214246D02*
X163854000Y-100214246D01*
X174939000Y-93253246D02*
X158817000Y-93253246D01*
X172233000Y-84803755D02*
X170633000Y-84803755D01*
X165438000Y-95294246D02*
X159225000Y-95294246D01*
X170515000Y-99934246D02*
X163241000Y-99934246D01*
X174837000Y-94094246D02*
X158919000Y-94094246D01*
X165438000Y-95454246D02*
X159281000Y-95454246D01*
X171784000Y-99134246D02*
X161972000Y-99134246D01*
X174958000Y-92813246D02*
X158798000Y-92813246D01*
X169698000Y-100294246D02*
X164058000Y-100294246D01*
X174503000Y-95374246D02*
X168318000Y-95374246D01*
X174489000Y-95414246D02*
X168318000Y-95414246D01*
X174368000Y-95734246D02*
X168318000Y-95734246D01*
X173764000Y-96934246D02*
X168318000Y-96934246D01*
X174949000Y-93093246D02*
X158807000Y-93093246D01*
X172680000Y-98334246D02*
X161076000Y-98334246D01*
X174156000Y-96214246D02*
X168318000Y-96214246D01*
X172830000Y-98174246D02*
X160926000Y-98174246D01*
X174194000Y-96134246D02*
X168318000Y-96134246D01*
X172221000Y-98774246D02*
X161535000Y-98774246D01*
X165438000Y-95334246D02*
X159239000Y-95334246D01*
X165438000Y-95574246D02*
X159325000Y-95574246D01*
X174830000Y-94134246D02*
X158926000Y-94134246D01*
X174698000Y-94734246D02*
X159058000Y-94734246D01*
X165438000Y-96174246D02*
X159581000Y-96174246D01*
X174571000Y-95174246D02*
X168318000Y-95174246D01*
X171732000Y-99174246D02*
X162024000Y-99174246D01*
X168442000Y-100654246D02*
X165314000Y-100654246D01*
X174942000Y-93213246D02*
X158814000Y-93213246D01*
X173972000Y-96574246D02*
X168318000Y-96574246D01*
X174718000Y-94654246D02*
X159038000Y-94654246D01*
X174863000Y-93934246D02*
X158893000Y-93934246D01*
X165438000Y-96134246D02*
X159562000Y-96134246D01*
X174728000Y-94614246D02*
X159028000Y-94614246D01*
X172903000Y-98094246D02*
X160853000Y-98094246D01*
X174643000Y-94934246D02*
X159113000Y-94934246D01*
X165438000Y-97374246D02*
X160282000Y-97374246D01*
X171887000Y-99054246D02*
X161869000Y-99054246D01*
X168798000Y-100574246D02*
X164958000Y-100574246D01*
X167643000Y-100774246D02*
X166113000Y-100774246D01*
X165438000Y-95254246D02*
X159212000Y-95254246D01*
X165438000Y-95534246D02*
X159310000Y-95534246D01*
X173530000Y-97294246D02*
X168318000Y-97294246D01*
X167976000Y-100734246D02*
X165780000Y-100734246D01*
X174906000Y-93614246D02*
X158850000Y-93614246D01*
X173173000Y-97774246D02*
X168318000Y-97774246D01*
X174815000Y-94214246D02*
X158941000Y-94214246D01*
X173611000Y-97174246D02*
X168318000Y-97174246D01*
X174475000Y-95454246D02*
X168318000Y-95454246D01*
X165438000Y-95494246D02*
X159296000Y-95494246D01*
X173474000Y-97374246D02*
X168318000Y-97374246D01*
X172521000Y-98494246D02*
X161235000Y-98494246D01*
X174911000Y-93574246D02*
X158845000Y-93574246D01*
X174930000Y-93373246D02*
X158826000Y-93373246D01*
X165438000Y-95854246D02*
X159438000Y-95854246D01*
X165438000Y-97254246D02*
X160199000Y-97254246D01*
X165438000Y-96094246D02*
X159544000Y-96094246D01*
X172602000Y-98414246D02*
X161154000Y-98414246D01*
X165438000Y-96894246D02*
X159968000Y-96894246D01*
X170885000Y-99734246D02*
X162871000Y-99734246D01*
X173141000Y-97814246D02*
X168318000Y-97814246D01*
X174738000Y-94574246D02*
X159018000Y-94574246D01*
X169589000Y-100334246D02*
X164167000Y-100334246D01*
X165438000Y-96454246D02*
X159721000Y-96454246D01*
X165438000Y-96014246D02*
X159507000Y-96014246D01*
X172129000Y-98854246D02*
X161627000Y-98854246D01*
X170268000Y-100054246D02*
X163488000Y-100054246D01*
X174947000Y-93133246D02*
X158809000Y-93133246D01*
X165438000Y-97414246D02*
X160310000Y-97414246D01*
X172867000Y-98134246D02*
X160889000Y-98134246D01*
X168630000Y-100614246D02*
X165126000Y-100614246D01*
X174959000Y-92693246D02*
X158797000Y-92693246D01*
X172794000Y-98214246D02*
X160962000Y-98214246D01*
X165438000Y-96694246D02*
X159851000Y-96694246D01*
X165438000Y-97294246D02*
X160226000Y-97294246D01*
X174318000Y-95854246D02*
X168318000Y-95854246D01*
X171397000Y-99414246D02*
X162359000Y-99414246D01*
X173557000Y-97254246D02*
X168318000Y-97254246D01*
X174956000Y-92893246D02*
X158800000Y-92893246D01*
X165438000Y-97814246D02*
X160615000Y-97814246D01*
X171512000Y-99334246D02*
X162244000Y-99334246D01*
X174384000Y-95694246D02*
X168318000Y-95694246D01*
X165438000Y-97854246D02*
X160648000Y-97854246D01*
X174944000Y-93173246D02*
X158812000Y-93173246D01*
X165438000Y-95974246D02*
X159489000Y-95974246D01*
X168229000Y-100694246D02*
X165527000Y-100694246D01*
X174301000Y-95894246D02*
X168318000Y-95894246D01*
X172310000Y-98694246D02*
X161446000Y-98694246D01*
X171151000Y-99574246D02*
X162605000Y-99574246D01*
X165438000Y-95414246D02*
X159267000Y-95414246D01*
X174881000Y-93814246D02*
X158875000Y-93814246D01*
X173236000Y-97694246D02*
X168318000Y-97694246D01*
X174175000Y-96174246D02*
X168318000Y-96174246D01*
X170668000Y-99854246D02*
X163088000Y-99854246D01*
X174077000Y-96374246D02*
X168318000Y-96374246D01*
X173205000Y-97734246D02*
X168318000Y-97734246D01*
X173739000Y-96974246D02*
X168318000Y-96974246D01*
X173358000Y-97534246D02*
X168318000Y-97534246D01*
X174954000Y-92973246D02*
X158802000Y-92973246D01*
X171836000Y-99094246D02*
X161920000Y-99094246D01*
X174249000Y-96014246D02*
X168318000Y-96014246D01*
X169356000Y-100414246D02*
X164400000Y-100414246D01*
X174919000Y-93494246D02*
X158837000Y-93494246D01*
X174267000Y-95974246D02*
X168318000Y-95974246D01*
X172718000Y-98294246D02*
X161038000Y-98294246D01*
X165438000Y-96414246D02*
X159700000Y-96414246D01*
X165438000Y-96294246D02*
X159639000Y-96294246D01*
X174936000Y-93293246D02*
X158820000Y-93293246D01*
X165438000Y-97174246D02*
X160145000Y-97174246D01*
X169998000Y-100174246D02*
X163758000Y-100174246D01*
X165438000Y-97534246D02*
X160398000Y-97534246D01*
X165438000Y-97014246D02*
X160042000Y-97014246D01*
X172562000Y-98454246D02*
X161194000Y-98454246D01*
X165438000Y-95814246D02*
X159421000Y-95814246D01*
X165438000Y-97734246D02*
X160551000Y-97734246D01*
X173836000Y-96814246D02*
X168318000Y-96814246D01*
X174517000Y-95334246D02*
X168318000Y-95334246D01*
X173584000Y-97214246D02*
X168318000Y-97214246D01*
X174897000Y-93694246D02*
X158859000Y-93694246D01*
X165438000Y-96374246D02*
X159679000Y-96374246D01*
X173108000Y-97854246D02*
X168318000Y-97854246D01*
X174844000Y-94054246D02*
X158912000Y-94054246D01*
X168952000Y-100534246D02*
X164804000Y-100534246D01*
X174774000Y-94414246D02*
X158982000Y-94414246D01*
X173882000Y-96734246D02*
X168318000Y-96734246D01*
X174957000Y-92853246D02*
X158799000Y-92853246D01*
X171986000Y-98974246D02*
X161770000Y-98974246D01*
X174765000Y-94454246D02*
X158991000Y-94454246D01*
X174544000Y-95254246D02*
X168318000Y-95254246D01*
X171087000Y-99614246D02*
X162669000Y-99614246D01*
X165438000Y-97214246D02*
X160172000Y-97214246D01*
X174558000Y-95214246D02*
X168318000Y-95214246D01*
X174799000Y-94294246D02*
X158957000Y-94294246D01*
X165438000Y-95654246D02*
X159356000Y-95654246D01*
X174620000Y-95014246D02*
X168318000Y-95014246D01*
X173446000Y-97414246D02*
X168318000Y-97414246D01*
X169802000Y-100254246D02*
X163954000Y-100254246D01*
X165438000Y-95094246D02*
X159160000Y-95094246D01*
X170954000Y-99694246D02*
X162802000Y-99694246D01*
X174952000Y-93013246D02*
X158804000Y-93013246D01*
X174951000Y-93053246D02*
X158805000Y-93053246D01*
X165438000Y-95374246D02*
X159253000Y-95374246D01*
X165438000Y-96534246D02*
X159763000Y-96534246D01*
X174958000Y-92773246D02*
X158798000Y-92773246D01*
X174284000Y-95934246D02*
X168318000Y-95934246D01*
X170435000Y-99974246D02*
X163321000Y-99974246D01*
X174747000Y-94534246D02*
X159009000Y-94534246D01*
X173075000Y-97894246D02*
X160681000Y-97894246D01*
X170091000Y-100134246D02*
X163665000Y-100134246D01*
X169096000Y-100494246D02*
X164660000Y-100494246D01*
X165438000Y-97094246D02*
X160093000Y-97094246D01*
X172973000Y-98014246D02*
X160783000Y-98014246D01*
X165438000Y-96654246D02*
X159829000Y-96654246D01*
X173905000Y-96694246D02*
X168318000Y-96694246D01*
X172353000Y-98654246D02*
X161403000Y-98654246D01*
X174056000Y-96414246D02*
X168318000Y-96414246D01*
X174869000Y-93894246D02*
X158887000Y-93894246D01*
X171569000Y-99294246D02*
X162187000Y-99294246D01*
X174460000Y-95494246D02*
X168318000Y-95494246D01*
X173993000Y-96534246D02*
X168318000Y-96534246D01*
X165438000Y-97654246D02*
X160488000Y-97654246D01*
X174608000Y-95054246D02*
X168318000Y-95054246D01*
X172396000Y-98614246D02*
X161360000Y-98614246D01*
X171337000Y-99454246D02*
X162419000Y-99454246D01*
X173637000Y-97134246D02*
X168318000Y-97134246D01*
X172641000Y-98374246D02*
X161115000Y-98374246D01*
X165438000Y-95894246D02*
X159455000Y-95894246D01*
X174446000Y-95534246D02*
X168318000Y-95534246D01*
X174783000Y-94374246D02*
X158973000Y-94374246D01*
X173812000Y-96854246D02*
X168318000Y-96854246D01*
X174756000Y-94494246D02*
X159000000Y-94494246D01*
X174666000Y-94854246D02*
X159090000Y-94854246D01*
X172756000Y-98254246D02*
X161000000Y-98254246D01*
X172438000Y-98574246D02*
X161318000Y-98574246D01*
X173041000Y-97934246D02*
X160715000Y-97934246D01*
X165438000Y-96574246D02*
X159784000Y-96574246D01*
X174927000Y-93414246D02*
X158829000Y-93414246D01*
X174231000Y-96054246D02*
X168318000Y-96054246D01*
X165438000Y-95054246D02*
X159148000Y-95054246D01*
X174400000Y-95654246D02*
X168318000Y-95654246D01*
X170593000Y-99894246D02*
X163163000Y-99894246D01*
X171021000Y-99654246D02*
X162735000Y-99654246D01*
X173689000Y-97054246D02*
X168318000Y-97054246D01*
X172480000Y-98534246D02*
X161276000Y-98534246D01*
X173502000Y-97334246D02*
X168318000Y-97334246D01*
X174822000Y-94174246D02*
X158934000Y-94174246D01*
X174708000Y-94694246D02*
X159048000Y-94694246D01*
X174117000Y-96294246D02*
X168318000Y-96294246D01*
X165438000Y-96254246D02*
X159620000Y-96254246D01*
X174583000Y-95134246D02*
X168318000Y-95134246D01*
X165438000Y-97054246D02*
X160067000Y-97054246D01*
X174955000Y-92933246D02*
X158801000Y-92933246D01*
X165438000Y-95774246D02*
X159404000Y-95774246D01*
X165438000Y-96734246D02*
X159874000Y-96734246D01*
X172175000Y-98814246D02*
X161581000Y-98814246D01*
X174335000Y-95814246D02*
X168318000Y-95814246D01*
X174677000Y-94814246D02*
X159079000Y-94814246D01*
X165438000Y-96214246D02*
X159600000Y-96214246D01*
X165438000Y-97694246D02*
X160520000Y-97694246D01*
X165438000Y-96614246D02*
X159806000Y-96614246D01*
X165438000Y-96334246D02*
X159659000Y-96334246D01*
X165438000Y-96934246D02*
X159992000Y-96934246D01*
X174998000Y-92693246D02*
G75*
G03*
X174998000Y-92693246I-8120000J0D01*
G01*
X122413752Y-68680000D02*
X121891248Y-68680000D01*
X122413752Y-67210000D02*
X121891248Y-67210000D01*
X127362000Y-76840000D02*
X126102000Y-76840000D01*
X120542000Y-73080000D02*
X120542000Y-76840000D01*
X120542000Y-76840000D02*
X121802000Y-76840000D01*
X127362000Y-70830000D02*
X127362000Y-76840000D01*
D12*
X119380000Y-64770000D03*
D13*
X119380000Y-62230000D03*
X121920000Y-64770000D03*
X121920000Y-62230000D03*
X124460000Y-64770000D03*
X124460000Y-62230000D03*
X127000000Y-64770000D03*
X127000000Y-62230000D03*
X129540000Y-64770000D03*
X129540000Y-62230000D03*
X132080000Y-64770000D03*
X132080000Y-62230000D03*
X134620000Y-64770000D03*
X134620000Y-62230000D03*
X137160000Y-64770000D03*
X137160000Y-62230000D03*
X139700000Y-64770000D03*
X139700000Y-62230000D03*
X142240000Y-64770000D03*
X142240000Y-62230000D03*
X144780000Y-64770000D03*
X144780000Y-62230000D03*
X147320000Y-64770000D03*
X147320000Y-62230000D03*
X149860000Y-64770000D03*
X149860000Y-62230000D03*
X152400000Y-64770000D03*
X152400000Y-62230000D03*
X154940000Y-64770000D03*
X154940000Y-62230000D03*
X157480000Y-64770000D03*
X157480000Y-62230000D03*
X160020000Y-64770000D03*
X160020000Y-62230000D03*
X162560000Y-64770000D03*
X162560000Y-62230000D03*
X165100000Y-64770000D03*
X165100000Y-62230000D03*
X167640000Y-64770000D03*
X167640000Y-62230000D03*
M02*
