G04 #@! TF.GenerationSoftware,KiCad,Pcbnew,(6.0.7)*
G04 #@! TF.CreationDate,2023-03-07T13:05:20-06:00*
G04 #@! TF.ProjectId,backpackbuddy_system,6261636b-7061-4636-9b62-756464795f73,rev?*
G04 #@! TF.SameCoordinates,Original*
G04 #@! TF.FileFunction,Soldermask,Top*
G04 #@! TF.FilePolarity,Negative*
%FSLAX46Y46*%
G04 Gerber Fmt 4.6, Leading zero omitted, Abs format (unit mm)*
G04 Created by KiCad (PCBNEW (6.0.7)) date 2023-03-07 13:05:20*
%MOMM*%
%LPD*%
G01*
G04 APERTURE LIST*
G04 Aperture macros list*
%AMRoundRect*
0 Rectangle with rounded corners*
0 $1 Rounding radius*
0 $2 $3 $4 $5 $6 $7 $8 $9 X,Y pos of 4 corners*
0 Add a 4 corners polygon primitive as box body*
4,1,4,$2,$3,$4,$5,$6,$7,$8,$9,$2,$3,0*
0 Add four circle primitives for the rounded corners*
1,1,$1+$1,$2,$3*
1,1,$1+$1,$4,$5*
1,1,$1+$1,$6,$7*
1,1,$1+$1,$8,$9*
0 Add four rect primitives between the rounded corners*
20,1,$1+$1,$2,$3,$4,$5,0*
20,1,$1+$1,$4,$5,$6,$7,0*
20,1,$1+$1,$6,$7,$8,$9,0*
20,1,$1+$1,$8,$9,$2,$3,0*%
%AMFreePoly0*
4,1,22,0.500000,-0.750000,0.000000,-0.750000,0.000000,-0.745033,-0.079941,-0.743568,-0.215256,-0.701293,-0.333266,-0.622738,-0.424486,-0.514219,-0.481581,-0.384460,-0.499164,-0.250000,-0.500000,-0.250000,-0.500000,0.250000,-0.499164,0.250000,-0.499963,0.256109,-0.478152,0.396186,-0.417904,0.524511,-0.324060,0.630769,-0.204165,0.706417,-0.067858,0.745374,0.000000,0.744959,0.000000,0.750000,
0.500000,0.750000,0.500000,-0.750000,0.500000,-0.750000,$1*%
%AMFreePoly1*
4,1,20,0.000000,0.744959,0.073905,0.744508,0.209726,0.703889,0.328688,0.626782,0.421226,0.519385,0.479903,0.390333,0.500000,0.250000,0.500000,-0.250000,0.499851,-0.262216,0.476331,-0.402017,0.414519,-0.529596,0.319384,-0.634700,0.198574,-0.708877,0.061801,-0.746166,0.000000,-0.745033,0.000000,-0.750000,-0.500000,-0.750000,-0.500000,0.750000,0.000000,0.750000,0.000000,0.744959,
0.000000,0.744959,$1*%
G04 Aperture macros list end*
%ADD10C,6.200000*%
%ADD11R,1.727200X1.727200*%
%ADD12O,1.727200X1.727200*%
%ADD13RoundRect,0.237500X-0.250000X-0.237500X0.250000X-0.237500X0.250000X0.237500X-0.250000X0.237500X0*%
%ADD14RoundRect,0.237500X-0.287500X-0.237500X0.287500X-0.237500X0.287500X0.237500X-0.287500X0.237500X0*%
%ADD15R,1.700000X1.700000*%
%ADD16O,1.700000X1.700000*%
%ADD17RoundRect,0.250000X0.337500X0.475000X-0.337500X0.475000X-0.337500X-0.475000X0.337500X-0.475000X0*%
%ADD18R,1.600000X1.600000*%
%ADD19C,1.600000*%
%ADD20RoundRect,0.250000X-0.475000X0.337500X-0.475000X-0.337500X0.475000X-0.337500X0.475000X0.337500X0*%
%ADD21R,1.100000X1.100000*%
%ADD22RoundRect,0.237500X-0.237500X0.287500X-0.237500X-0.287500X0.237500X-0.287500X0.237500X0.287500X0*%
%ADD23RoundRect,0.237500X0.287500X0.237500X-0.287500X0.237500X-0.287500X-0.237500X0.287500X-0.237500X0*%
%ADD24RoundRect,0.237500X0.237500X-0.287500X0.237500X0.287500X-0.237500X0.287500X-0.237500X-0.287500X0*%
%ADD25RoundRect,0.250000X-0.337500X-0.475000X0.337500X-0.475000X0.337500X0.475000X-0.337500X0.475000X0*%
%ADD26R,2.200000X1.400000*%
%ADD27C,1.000000*%
%ADD28R,1.800000X1.800000*%
%ADD29O,1.800000X1.800000*%
%ADD30R,1.905000X2.000000*%
%ADD31O,1.905000X2.000000*%
%ADD32RoundRect,0.237500X0.250000X0.237500X-0.250000X0.237500X-0.250000X-0.237500X0.250000X-0.237500X0*%
%ADD33RoundRect,0.237500X0.300000X0.237500X-0.300000X0.237500X-0.300000X-0.237500X0.300000X-0.237500X0*%
%ADD34RoundRect,0.720000X0.720000X5.505000X-0.720000X5.505000X-0.720000X-5.505000X0.720000X-5.505000X0*%
%ADD35FreePoly0,270.000000*%
%ADD36FreePoly1,270.000000*%
%ADD37R,2.300000X3.500000*%
%ADD38RoundRect,0.237500X-0.300000X-0.237500X0.300000X-0.237500X0.300000X0.237500X-0.300000X0.237500X0*%
%ADD39R,2.000000X1.500000*%
%ADD40R,2.000000X3.800000*%
%ADD41R,2.400000X2.400000*%
%ADD42C,2.400000*%
%ADD43R,1.500000X2.000000*%
%ADD44R,3.800000X2.000000*%
G04 APERTURE END LIST*
D10*
X172510000Y-63500000D03*
X114510000Y-63500000D03*
X114510000Y-112500000D03*
X172510000Y-112500000D03*
D11*
X119380000Y-64770000D03*
D12*
X119380000Y-62230000D03*
X121920000Y-64770000D03*
X121920000Y-62230000D03*
X124460000Y-64770000D03*
X124460000Y-62230000D03*
X127000000Y-64770000D03*
X127000000Y-62230000D03*
X129540000Y-64770000D03*
X129540000Y-62230000D03*
X132080000Y-64770000D03*
X132080000Y-62230000D03*
X134620000Y-64770000D03*
X134620000Y-62230000D03*
X137160000Y-64770000D03*
X137160000Y-62230000D03*
X139700000Y-64770000D03*
X139700000Y-62230000D03*
X142240000Y-64770000D03*
X142240000Y-62230000D03*
X144780000Y-64770000D03*
X144780000Y-62230000D03*
X147320000Y-64770000D03*
X147320000Y-62230000D03*
X149860000Y-64770000D03*
X149860000Y-62230000D03*
X152400000Y-64770000D03*
X152400000Y-62230000D03*
X154940000Y-64770000D03*
X154940000Y-62230000D03*
X157480000Y-64770000D03*
X157480000Y-62230000D03*
X160020000Y-64770000D03*
X160020000Y-62230000D03*
X162560000Y-64770000D03*
X162560000Y-62230000D03*
X165100000Y-64770000D03*
X165100000Y-62230000D03*
X167640000Y-64770000D03*
X167640000Y-62230000D03*
D13*
X148185500Y-96901000D03*
X150010500Y-96901000D03*
D14*
X128080800Y-69265800D03*
X129830800Y-69265800D03*
D15*
X113284000Y-100330000D03*
D16*
X113284000Y-102870000D03*
X113284000Y-105410000D03*
D15*
X120655000Y-113792000D03*
D16*
X123195000Y-113792000D03*
X125735000Y-113792000D03*
X128275000Y-113792000D03*
X130815000Y-113792000D03*
D15*
X139705000Y-113792000D03*
D16*
X142245000Y-113792000D03*
X144785000Y-113792000D03*
X147325000Y-113792000D03*
X149865000Y-113792000D03*
D17*
X119147500Y-67945000D03*
X117072500Y-67945000D03*
D18*
X134670800Y-71524749D03*
D19*
X134670800Y-75024749D03*
D20*
X157226000Y-91164500D03*
X157226000Y-93239500D03*
D21*
X142618000Y-93091000D03*
X145418000Y-93091000D03*
D22*
X172720000Y-77992000D03*
X172720000Y-79742000D03*
D23*
X142353000Y-88138000D03*
X140603000Y-88138000D03*
D14*
X128665000Y-78105000D03*
X130415000Y-78105000D03*
D15*
X116967000Y-71120000D03*
D16*
X116967000Y-73660000D03*
X116967000Y-76200000D03*
D24*
X138049000Y-81520000D03*
X138049000Y-79770000D03*
D13*
X125122300Y-85191600D03*
X126947300Y-85191600D03*
D17*
X120624600Y-81534000D03*
X118549600Y-81534000D03*
D25*
X164465000Y-110490000D03*
X166540000Y-110490000D03*
D26*
X126310000Y-87285000D03*
X135310000Y-87285000D03*
X126310000Y-91785000D03*
X135310000Y-91785000D03*
D27*
X131902200Y-67665600D03*
D15*
X113284000Y-71120000D03*
D16*
X113284000Y-73660000D03*
X113284000Y-76200000D03*
D15*
X116967000Y-100330000D03*
D16*
X116967000Y-102870000D03*
X116967000Y-105410000D03*
D27*
X174752000Y-79756000D03*
D28*
X161925000Y-71705000D03*
D29*
X163195000Y-75405000D03*
X164465000Y-71705000D03*
X165735000Y-75405000D03*
X167005000Y-71705000D03*
X168275000Y-75405000D03*
X169545000Y-71705000D03*
D27*
X134594600Y-80035400D03*
D30*
X163195000Y-80955000D03*
D31*
X165735000Y-80955000D03*
X168275000Y-80955000D03*
D32*
X142390500Y-90424000D03*
X140565500Y-90424000D03*
D24*
X132842000Y-79770000D03*
X132842000Y-81520000D03*
D33*
X131418500Y-102108000D03*
X129693500Y-102108000D03*
D15*
X173609000Y-69865000D03*
D16*
X173609000Y-72405000D03*
X173609000Y-74945000D03*
D25*
X128502500Y-110490000D03*
X130577500Y-110490000D03*
D27*
X113614200Y-68021200D03*
D34*
X157500000Y-76835000D03*
X142220000Y-76835000D03*
D27*
X134061200Y-67640200D03*
D35*
X172720000Y-82916000D03*
D36*
X172720000Y-84216000D03*
D37*
X121920000Y-103665000D03*
X121920000Y-98265000D03*
D38*
X148235500Y-95250000D03*
X149960500Y-95250000D03*
D13*
X133199500Y-102108000D03*
X135024500Y-102108000D03*
D27*
X174498000Y-99060000D03*
D26*
X135310000Y-100040000D03*
X126310000Y-100040000D03*
X135310000Y-95540000D03*
X126310000Y-95540000D03*
D27*
X174574200Y-87249000D03*
D39*
X148234000Y-88378000D03*
D40*
X154534000Y-90678000D03*
D39*
X148234000Y-90678000D03*
X148234000Y-92978000D03*
D27*
X161798000Y-110744000D03*
D22*
X138887200Y-108243400D03*
X138887200Y-109993400D03*
D25*
X147320000Y-110490000D03*
X149395000Y-110490000D03*
D15*
X118110000Y-92130000D03*
D16*
X120650000Y-92130000D03*
X118110000Y-89590000D03*
X120650000Y-89590000D03*
X118110000Y-87050000D03*
X120650000Y-87050000D03*
X118110000Y-84510000D03*
X120650000Y-84510000D03*
D23*
X168007000Y-102362000D03*
X166257000Y-102362000D03*
D15*
X159217200Y-113792000D03*
D16*
X161757200Y-113792000D03*
X164297200Y-113792000D03*
X166837200Y-113792000D03*
D41*
X166878000Y-88943246D03*
D42*
X166878000Y-96443246D03*
D17*
X123190000Y-67945000D03*
X121115000Y-67945000D03*
D43*
X126252000Y-71780000D03*
X123952000Y-71780000D03*
X121652000Y-71780000D03*
D44*
X123952000Y-78080000D03*
M02*
