M48
INCH,TZ
T1C0.0157
T2C0.0197
T3C0.0315
T4C0.0315
T5C0.0394
T6C0.0400
T7C0.0433
T8C0.0472
%
G90
G05
T1
X46030Y-32700
X48050Y-26450
X48430Y-36880
X48775Y-37225
X49100Y-34364
X49350Y-29990
X49440Y-34950
X49440Y-35580
X50060Y-29870
X50396Y-37614
X50710Y-37950
X51080Y-40770
X51120Y-41540
X51140Y-27700
X51150Y-37940
X51664Y-36136
X51850Y-30920
X51946Y-37614
X53580Y-38420
X53730Y-40200
X53850Y-38684
X53950Y-39610
X54000Y-30830
X54150Y-37740
X54760Y-37260
X55030Y-43820
X55500Y-40200
X56240Y-33260
X56850Y-31740
X56850Y-32680
X58900Y-37100
X59510Y-37150
X59760Y-38960
X59790Y-31100
X59800Y-36100
X59870Y-30230
X59900Y-33900
X61100Y-28950
X61600Y-35500
X61900Y-34630
X62740Y-37090
X63400Y-28850
X65250Y-28620
X66650Y-40300
T2
X44730Y-26780
X51930Y-26640
X52780Y-26630
X52990Y-31510
X63700Y-43600
X68700Y-39000
X68730Y-34350
X68800Y-31400
T3
X47050Y-28020
X48660Y-28900
X49500Y-26000
X50290Y-32870
X50950Y-26650
X51150Y-28140
X53750Y-32860
X54050Y-35700
X59400Y-34800
T4
X53020Y-28159
X53020Y-29537
T5
X44600Y-28000
X44600Y-29000
X44600Y-30000
X44600Y-39500
X44600Y-40500
X44600Y-41500
X46050Y-28000
X46050Y-29000
X46050Y-30000
X46050Y-39500
X46050Y-40500
X46050Y-41500
X46500Y-33272
X46500Y-34272
X46500Y-35272
X46500Y-36272
X47500Y-33272
X47500Y-34272
X47500Y-35272
X47500Y-36272
X47502Y-44800
X48502Y-44800
X49502Y-44800
X50502Y-44800
X51502Y-44800
X55002Y-44800
X56002Y-44800
X57002Y-44800
X58002Y-44800
X59002Y-44800
X62684Y-44800
X63684Y-44800
X64684Y-44800
X65684Y-44800
X68350Y-27506
X68350Y-28506
X68350Y-29506
T6
X47000Y-24500
X47000Y-25500
X48000Y-24500
X48000Y-25500
X49000Y-24500
X49000Y-25500
X50000Y-24500
X50000Y-25500
X51000Y-24500
X51000Y-25500
X52000Y-24500
X52000Y-25500
X53000Y-24500
X53000Y-25500
X54000Y-24500
X54000Y-25500
X55000Y-24500
X55000Y-25500
X56000Y-24500
X56000Y-25500
X57000Y-24500
X57000Y-25500
X58000Y-24500
X58000Y-25500
X59000Y-24500
X59000Y-25500
X60000Y-24500
X60000Y-25500
X61000Y-24500
X61000Y-25500
X62000Y-24500
X62000Y-25500
X63000Y-24500
X63000Y-25500
X64000Y-24500
X64000Y-25500
X65000Y-24500
X65000Y-25500
X66000Y-24500
X66000Y-25500
T7
X64250Y-31872
X65250Y-31872
X66250Y-31872
T8
X63750Y-28230
X64250Y-29687
X64750Y-28230
X65250Y-29687
X65700Y-35017
X65700Y-37970
X65750Y-28230
X66250Y-29687
X66750Y-28230
T0
M30
