M48
; DRILL file {KiCad (6.0.7)} date Tue Apr  4 22:21:55 2023
; FORMAT={-:-/ absolute / inch / decimal}
; #@! TF.CreationDate,2023-04-04T22:21:55-05:00
; #@! TF.GenerationSoftware,Kicad,Pcbnew,(6.0.7)
; #@! TF.FileFunction,Plated,1,2,PTH
FMAT,2
INCH
; #@! TA.AperFunction,Plated,PTH,ViaDrill
T1C0.0157
; #@! TA.AperFunction,Plated,PTH,ViaDrill
T2C0.0197
; #@! TA.AperFunction,Plated,PTH,ComponentDrill
T3C0.0197
; #@! TA.AperFunction,Plated,PTH,ViaDrill
T4C0.0315
; #@! TA.AperFunction,Plated,PTH,ComponentDrill
T5C0.0315
; #@! TA.AperFunction,Plated,PTH,ComponentDrill
T6C0.0394
; #@! TA.AperFunction,Plated,PTH,ComponentDrill
T7C0.0400
; #@! TA.AperFunction,Plated,PTH,ComponentDrill
T8C0.0433
; #@! TA.AperFunction,Plated,PTH,ComponentDrill
T9C0.0472
%
G90
G05
T1
X4.603Y-3.27
X4.8095Y-2.6449
X4.843Y-3.688
X4.8775Y-3.7225
X4.91Y-3.4364
X4.93Y-2.99
X4.93Y-3.135
X4.944Y-3.495
X4.944Y-3.558
X5.006Y-2.987
X5.011Y-3.074
X5.0396Y-3.7614
X5.071Y-3.795
X5.085Y-3.475
X5.09Y-3.565
X5.108Y-4.077
X5.112Y-4.154
X5.114Y-2.77
X5.115Y-3.794
X5.1664Y-3.6136
X5.1946Y-3.7614
X5.215Y-3.092
X5.3206Y-3.9843
X5.36Y-3.842
X5.37Y-3.09
X5.385Y-3.8684
X5.4134Y-3.9882
X5.415Y-3.774
X5.476Y-3.726
X5.503Y-4.382
X5.505Y-3.4377
X5.5472Y-3.4131
X5.55Y-4.02
X5.624Y-3.326
X5.6798Y-3.9176
X5.685Y-3.174
X5.685Y-3.268
X5.6985Y-3.715
X5.7Y-3.4085
X5.7Y-3.44
X5.7025Y-3.9425
X5.73Y-3.715
X5.89Y-3.71
X5.9606Y-3.7185
X5.976Y-3.896
X5.98Y-3.1
X5.98Y-3.61
X5.99Y-3.39
X6.015Y-3.023
X6.11Y-2.895
X6.16Y-3.55
X6.19Y-3.463
X6.25Y-3.7736
X6.28Y-3.37
X6.665Y-4.03
T2
X4.878Y-2.7559
T3
X4.473Y-2.678
X5.299Y-3.151
X6.2972Y-4.315
X6.87Y-3.9
X6.873Y-3.435
X6.88Y-3.14
T4
X4.8504Y-2.8976
X5.029Y-3.287
X5.11Y-2.815
X5.15Y-2.6627
X5.375Y-3.286
X5.405Y-3.57
X5.94Y-3.48
T5
X5.302Y-2.8159
X5.302Y-2.9537
T6
X4.46Y-2.8
X4.46Y-2.9
X4.46Y-3.0
X4.46Y-3.95
X4.46Y-4.05
X4.46Y-4.15
X4.605Y-2.8
X4.605Y-2.9
X4.605Y-3.0
X4.605Y-3.95
X4.605Y-4.05
X4.605Y-4.15
X4.65Y-3.3272
X4.65Y-3.4272
X4.65Y-3.5272
X4.65Y-3.6272
X4.75Y-3.3272
X4.75Y-3.4272
X4.75Y-3.5272
X4.75Y-3.6272
X4.7502Y-4.48
X4.8502Y-4.48
X4.9502Y-4.48
X5.0502Y-4.48
X5.1502Y-4.48
X5.5002Y-4.48
X5.6002Y-4.48
X5.7002Y-4.48
X5.8002Y-4.48
X5.9002Y-4.48
X6.2684Y-4.48
X6.3684Y-4.48
X6.3947Y-4.249
X6.3947Y-4.349
X6.4684Y-4.48
X6.4947Y-4.249
X6.4947Y-4.349
X6.5684Y-4.48
X6.5947Y-4.249
X6.5947Y-4.349
X6.835Y-2.7506
X6.835Y-2.8506
X6.835Y-2.9506
T7
X4.7Y-2.45
X4.7Y-2.55
X4.8Y-2.45
X4.8Y-2.55
X4.9Y-2.45
X4.9Y-2.55
X5.0Y-2.45
X5.0Y-2.55
X5.1Y-2.45
X5.1Y-2.55
X5.2Y-2.45
X5.2Y-2.55
X5.3Y-2.45
X5.3Y-2.55
X5.4Y-2.45
X5.4Y-2.55
X5.5Y-2.45
X5.5Y-2.55
X5.6Y-2.45
X5.6Y-2.55
X5.7Y-2.45
X5.7Y-2.55
X5.8Y-2.45
X5.8Y-2.55
X5.9Y-2.45
X5.9Y-2.55
X6.0Y-2.45
X6.0Y-2.55
X6.1Y-2.45
X6.1Y-2.55
X6.2Y-2.45
X6.2Y-2.55
X6.3Y-2.45
X6.3Y-2.55
X6.4Y-2.45
X6.4Y-2.55
X6.5Y-2.45
X6.5Y-2.55
X6.6Y-2.45
X6.6Y-2.55
T8
X6.425Y-3.1872
X6.525Y-3.1872
X6.625Y-3.1872
T9
X6.3815Y-2.9823
X6.4315Y-2.8366
X6.4815Y-2.9823
X6.5315Y-2.8366
X6.57Y-3.5017
X6.57Y-3.797
X6.5815Y-2.9823
X6.6315Y-2.8366
X6.6815Y-2.9823
T0
M30
