G04 #@! TF.GenerationSoftware,KiCad,Pcbnew,(6.0.7)*
G04 #@! TF.CreationDate,2023-03-07T13:05:20-06:00*
G04 #@! TF.ProjectId,backpackbuddy_system,6261636b-7061-4636-9b62-756464795f73,rev?*
G04 #@! TF.SameCoordinates,Original*
G04 #@! TF.FileFunction,Legend,Bot*
G04 #@! TF.FilePolarity,Positive*
%FSLAX46Y46*%
G04 Gerber Fmt 4.6, Leading zero omitted, Abs format (unit mm)*
G04 Created by KiCad (PCBNEW (6.0.7)) date 2023-03-07 13:05:20*
%MOMM*%
%LPD*%
G01*
G04 APERTURE LIST*
%ADD10C,0.150000*%
%ADD11C,0.120000*%
G04 APERTURE END LIST*
D10*
X149391666Y-81477142D02*
X149439285Y-81524761D01*
X149582142Y-81572380D01*
X149677380Y-81572380D01*
X149820238Y-81524761D01*
X149915476Y-81429523D01*
X149963095Y-81334285D01*
X150010714Y-81143809D01*
X150010714Y-81000952D01*
X149963095Y-80810476D01*
X149915476Y-80715238D01*
X149820238Y-80620000D01*
X149677380Y-80572380D01*
X149582142Y-80572380D01*
X149439285Y-80620000D01*
X149391666Y-80667619D01*
X149058333Y-80572380D02*
X148439285Y-80572380D01*
X148772619Y-80953333D01*
X148629761Y-80953333D01*
X148534523Y-81000952D01*
X148486904Y-81048571D01*
X148439285Y-81143809D01*
X148439285Y-81381904D01*
X148486904Y-81477142D01*
X148534523Y-81524761D01*
X148629761Y-81572380D01*
X148915476Y-81572380D01*
X149010714Y-81524761D01*
X149058333Y-81477142D01*
X161057400Y-69606333D02*
X161090733Y-69573000D01*
X161124066Y-69473000D01*
X161124066Y-69406333D01*
X161090733Y-69306333D01*
X161024066Y-69239666D01*
X160957400Y-69206333D01*
X160824066Y-69173000D01*
X160724066Y-69173000D01*
X160590733Y-69206333D01*
X160524066Y-69239666D01*
X160457400Y-69306333D01*
X160424066Y-69406333D01*
X160424066Y-69473000D01*
X160457400Y-69573000D01*
X160490733Y-69606333D01*
X161124066Y-69939666D02*
X161124066Y-70073000D01*
X161090733Y-70139666D01*
X161057400Y-70173000D01*
X160957400Y-70239666D01*
X160824066Y-70273000D01*
X160557400Y-70273000D01*
X160490733Y-70239666D01*
X160457400Y-70206333D01*
X160424066Y-70139666D01*
X160424066Y-70006333D01*
X160457400Y-69939666D01*
X160490733Y-69906333D01*
X160557400Y-69873000D01*
X160724066Y-69873000D01*
X160790733Y-69906333D01*
X160824066Y-69939666D01*
X160857400Y-70006333D01*
X160857400Y-70139666D01*
X160824066Y-70206333D01*
X160790733Y-70239666D01*
X160724066Y-70273000D01*
X156084542Y-67676733D02*
X156132161Y-67629114D01*
X156179780Y-67486257D01*
X156179780Y-67391019D01*
X156132161Y-67248161D01*
X156036923Y-67152923D01*
X155941685Y-67105304D01*
X155751209Y-67057685D01*
X155608352Y-67057685D01*
X155417876Y-67105304D01*
X155322638Y-67152923D01*
X155227400Y-67248161D01*
X155179780Y-67391019D01*
X155179780Y-67486257D01*
X155227400Y-67629114D01*
X155275019Y-67676733D01*
X155608352Y-68248161D02*
X155560733Y-68152923D01*
X155513114Y-68105304D01*
X155417876Y-68057685D01*
X155370257Y-68057685D01*
X155275019Y-68105304D01*
X155227400Y-68152923D01*
X155179780Y-68248161D01*
X155179780Y-68438638D01*
X155227400Y-68533876D01*
X155275019Y-68581495D01*
X155370257Y-68629114D01*
X155417876Y-68629114D01*
X155513114Y-68581495D01*
X155560733Y-68533876D01*
X155608352Y-68438638D01*
X155608352Y-68248161D01*
X155655971Y-68152923D01*
X155703590Y-68105304D01*
X155798828Y-68057685D01*
X155989304Y-68057685D01*
X156084542Y-68105304D01*
X156132161Y-68152923D01*
X156179780Y-68248161D01*
X156179780Y-68438638D01*
X156132161Y-68533876D01*
X156084542Y-68581495D01*
X155989304Y-68629114D01*
X155798828Y-68629114D01*
X155703590Y-68581495D01*
X155655971Y-68533876D01*
X155608352Y-68438638D01*
X139712980Y-108450142D02*
X139236790Y-108116809D01*
X139712980Y-107878714D02*
X138712980Y-107878714D01*
X138712980Y-108259666D01*
X138760600Y-108354904D01*
X138808219Y-108402523D01*
X138903457Y-108450142D01*
X139046314Y-108450142D01*
X139141552Y-108402523D01*
X139189171Y-108354904D01*
X139236790Y-108259666D01*
X139236790Y-107878714D01*
X139712980Y-109402523D02*
X139712980Y-108831095D01*
X139712980Y-109116809D02*
X138712980Y-109116809D01*
X138855838Y-109021571D01*
X138951076Y-108926333D01*
X138998695Y-108831095D01*
X138712980Y-109735857D02*
X138712980Y-110354904D01*
X139093933Y-110021571D01*
X139093933Y-110164428D01*
X139141552Y-110259666D01*
X139189171Y-110307285D01*
X139284409Y-110354904D01*
X139522504Y-110354904D01*
X139617742Y-110307285D01*
X139665361Y-110259666D01*
X139712980Y-110164428D01*
X139712980Y-109878714D01*
X139665361Y-109783476D01*
X139617742Y-109735857D01*
X126404666Y-73807580D02*
X126738000Y-73331390D01*
X126976095Y-73807580D02*
X126976095Y-72807580D01*
X126595142Y-72807580D01*
X126499904Y-72855200D01*
X126452285Y-72902819D01*
X126404666Y-72998057D01*
X126404666Y-73140914D01*
X126452285Y-73236152D01*
X126499904Y-73283771D01*
X126595142Y-73331390D01*
X126976095Y-73331390D01*
X125928476Y-73807580D02*
X125738000Y-73807580D01*
X125642761Y-73759961D01*
X125595142Y-73712342D01*
X125499904Y-73569485D01*
X125452285Y-73379009D01*
X125452285Y-72998057D01*
X125499904Y-72902819D01*
X125547523Y-72855200D01*
X125642761Y-72807580D01*
X125833238Y-72807580D01*
X125928476Y-72855200D01*
X125976095Y-72902819D01*
X126023714Y-72998057D01*
X126023714Y-73236152D01*
X125976095Y-73331390D01*
X125928476Y-73379009D01*
X125833238Y-73426628D01*
X125642761Y-73426628D01*
X125547523Y-73379009D01*
X125499904Y-73331390D01*
X125452285Y-73236152D01*
X122867657Y-80835780D02*
X123200990Y-80359590D01*
X123439085Y-80835780D02*
X123439085Y-79835780D01*
X123058133Y-79835780D01*
X122962895Y-79883400D01*
X122915276Y-79931019D01*
X122867657Y-80026257D01*
X122867657Y-80169114D01*
X122915276Y-80264352D01*
X122962895Y-80311971D01*
X123058133Y-80359590D01*
X123439085Y-80359590D01*
X121915276Y-80835780D02*
X122486704Y-80835780D01*
X122200990Y-80835780D02*
X122200990Y-79835780D01*
X122296228Y-79978638D01*
X122391466Y-80073876D01*
X122486704Y-80121495D01*
X121010514Y-79835780D02*
X121486704Y-79835780D01*
X121534323Y-80311971D01*
X121486704Y-80264352D01*
X121391466Y-80216733D01*
X121153371Y-80216733D01*
X121058133Y-80264352D01*
X121010514Y-80311971D01*
X120962895Y-80407209D01*
X120962895Y-80645304D01*
X121010514Y-80740542D01*
X121058133Y-80788161D01*
X121153371Y-80835780D01*
X121391466Y-80835780D01*
X121486704Y-80788161D01*
X121534323Y-80740542D01*
X155697180Y-80948304D02*
X154697180Y-80948304D01*
X154697180Y-81186400D01*
X154744800Y-81329257D01*
X154840038Y-81424495D01*
X154935276Y-81472114D01*
X155125752Y-81519733D01*
X155268609Y-81519733D01*
X155459085Y-81472114D01*
X155554323Y-81424495D01*
X155649561Y-81329257D01*
X155697180Y-81186400D01*
X155697180Y-80948304D01*
X154697180Y-81853066D02*
X154697180Y-82472114D01*
X155078133Y-82138780D01*
X155078133Y-82281638D01*
X155125752Y-82376876D01*
X155173371Y-82424495D01*
X155268609Y-82472114D01*
X155506704Y-82472114D01*
X155601942Y-82424495D01*
X155649561Y-82376876D01*
X155697180Y-82281638D01*
X155697180Y-81995923D01*
X155649561Y-81900685D01*
X155601942Y-81853066D01*
X154814542Y-97756742D02*
X154862161Y-97709123D01*
X154909780Y-97566266D01*
X154909780Y-97471028D01*
X154862161Y-97328171D01*
X154766923Y-97232933D01*
X154671685Y-97185314D01*
X154481209Y-97137695D01*
X154338352Y-97137695D01*
X154147876Y-97185314D01*
X154052638Y-97232933D01*
X153957400Y-97328171D01*
X153909780Y-97471028D01*
X153909780Y-97566266D01*
X153957400Y-97709123D01*
X154005019Y-97756742D01*
X154005019Y-98137695D02*
X153957400Y-98185314D01*
X153909780Y-98280552D01*
X153909780Y-98518647D01*
X153957400Y-98613885D01*
X154005019Y-98661504D01*
X154100257Y-98709123D01*
X154195495Y-98709123D01*
X154338352Y-98661504D01*
X154909780Y-98090076D01*
X154909780Y-98709123D01*
X154005019Y-99090076D02*
X153957400Y-99137695D01*
X153909780Y-99232933D01*
X153909780Y-99471028D01*
X153957400Y-99566266D01*
X154005019Y-99613885D01*
X154100257Y-99661504D01*
X154195495Y-99661504D01*
X154338352Y-99613885D01*
X154909780Y-99042457D01*
X154909780Y-99661504D01*
X119106557Y-80861180D02*
X119439890Y-80384990D01*
X119677985Y-80861180D02*
X119677985Y-79861180D01*
X119297033Y-79861180D01*
X119201795Y-79908800D01*
X119154176Y-79956419D01*
X119106557Y-80051657D01*
X119106557Y-80194514D01*
X119154176Y-80289752D01*
X119201795Y-80337371D01*
X119297033Y-80384990D01*
X119677985Y-80384990D01*
X118154176Y-80861180D02*
X118725604Y-80861180D01*
X118439890Y-80861180D02*
X118439890Y-79861180D01*
X118535128Y-80004038D01*
X118630366Y-80099276D01*
X118725604Y-80146895D01*
X117297033Y-79861180D02*
X117487509Y-79861180D01*
X117582747Y-79908800D01*
X117630366Y-79956419D01*
X117725604Y-80099276D01*
X117773223Y-80289752D01*
X117773223Y-80670704D01*
X117725604Y-80765942D01*
X117677985Y-80813561D01*
X117582747Y-80861180D01*
X117392271Y-80861180D01*
X117297033Y-80813561D01*
X117249414Y-80765942D01*
X117201795Y-80670704D01*
X117201795Y-80432609D01*
X117249414Y-80337371D01*
X117297033Y-80289752D01*
X117392271Y-80242133D01*
X117582747Y-80242133D01*
X117677985Y-80289752D01*
X117725604Y-80337371D01*
X117773223Y-80432609D01*
X152701328Y-105208626D02*
X152768671Y-105208626D01*
X152903358Y-105141282D01*
X152970702Y-105073939D01*
X153038045Y-104939251D01*
X153038045Y-104804564D01*
X153004374Y-104703549D01*
X152903358Y-104535190D01*
X152802343Y-104434175D01*
X152633984Y-104333160D01*
X152532969Y-104299488D01*
X152398282Y-104299488D01*
X152263595Y-104366832D01*
X152196251Y-104434175D01*
X152128908Y-104568862D01*
X152128908Y-104636206D01*
X151859534Y-104905580D02*
X151792190Y-104905580D01*
X151691175Y-104939251D01*
X151522816Y-105107610D01*
X151489145Y-105208626D01*
X151489145Y-105275969D01*
X151522816Y-105376984D01*
X151590160Y-105444328D01*
X151724847Y-105511671D01*
X152532969Y-105511671D01*
X152095236Y-105949404D01*
X126461733Y-81621380D02*
X126461733Y-82335666D01*
X126509352Y-82478523D01*
X126604590Y-82573761D01*
X126747447Y-82621380D01*
X126842685Y-82621380D01*
X125985542Y-82621380D02*
X125985542Y-81621380D01*
X125604590Y-81621380D01*
X125509352Y-81669000D01*
X125461733Y-81716619D01*
X125414114Y-81811857D01*
X125414114Y-81954714D01*
X125461733Y-82049952D01*
X125509352Y-82097571D01*
X125604590Y-82145190D01*
X125985542Y-82145190D01*
X125033161Y-81716619D02*
X124985542Y-81669000D01*
X124890304Y-81621380D01*
X124652209Y-81621380D01*
X124556971Y-81669000D01*
X124509352Y-81716619D01*
X124461733Y-81811857D01*
X124461733Y-81907095D01*
X124509352Y-82049952D01*
X125080780Y-82621380D01*
X124461733Y-82621380D01*
X156485400Y-71584400D02*
X156518733Y-71551066D01*
X156552066Y-71451066D01*
X156552066Y-71384400D01*
X156518733Y-71284400D01*
X156452066Y-71217733D01*
X156385400Y-71184400D01*
X156252066Y-71151066D01*
X156152066Y-71151066D01*
X156018733Y-71184400D01*
X155952066Y-71217733D01*
X155885400Y-71284400D01*
X155852066Y-71384400D01*
X155852066Y-71451066D01*
X155885400Y-71551066D01*
X155918733Y-71584400D01*
X156552066Y-72251066D02*
X156552066Y-71851066D01*
X156552066Y-72051066D02*
X155852066Y-72051066D01*
X155952066Y-71984400D01*
X156018733Y-71917733D01*
X156052066Y-71851066D01*
X155852066Y-72684400D02*
X155852066Y-72751066D01*
X155885400Y-72817733D01*
X155918733Y-72851066D01*
X155985400Y-72884400D01*
X156118733Y-72917733D01*
X156285400Y-72917733D01*
X156418733Y-72884400D01*
X156485400Y-72851066D01*
X156518733Y-72817733D01*
X156552066Y-72751066D01*
X156552066Y-72684400D01*
X156518733Y-72617733D01*
X156485400Y-72584400D01*
X156418733Y-72551066D01*
X156285400Y-72517733D01*
X156118733Y-72517733D01*
X155985400Y-72551066D01*
X155918733Y-72584400D01*
X155885400Y-72617733D01*
X155852066Y-72684400D01*
X119907038Y-72836019D02*
X120002276Y-72788400D01*
X120097514Y-72693161D01*
X120240371Y-72550304D01*
X120335609Y-72502685D01*
X120430847Y-72502685D01*
X120383228Y-72740780D02*
X120478466Y-72693161D01*
X120573704Y-72597923D01*
X120621323Y-72407447D01*
X120621323Y-72074114D01*
X120573704Y-71883638D01*
X120478466Y-71788400D01*
X120383228Y-71740780D01*
X120192752Y-71740780D01*
X120097514Y-71788400D01*
X120002276Y-71883638D01*
X119954657Y-72074114D01*
X119954657Y-72407447D01*
X120002276Y-72597923D01*
X120097514Y-72693161D01*
X120192752Y-72740780D01*
X120383228Y-72740780D01*
X119573704Y-71836019D02*
X119526085Y-71788400D01*
X119430847Y-71740780D01*
X119192752Y-71740780D01*
X119097514Y-71788400D01*
X119049895Y-71836019D01*
X119002276Y-71931257D01*
X119002276Y-72026495D01*
X119049895Y-72169352D01*
X119621323Y-72740780D01*
X119002276Y-72740780D01*
X156262342Y-77303333D02*
X156309961Y-77255714D01*
X156357580Y-77112857D01*
X156357580Y-77017619D01*
X156309961Y-76874761D01*
X156214723Y-76779523D01*
X156119485Y-76731904D01*
X155929009Y-76684285D01*
X155786152Y-76684285D01*
X155595676Y-76731904D01*
X155500438Y-76779523D01*
X155405200Y-76874761D01*
X155357580Y-77017619D01*
X155357580Y-77112857D01*
X155405200Y-77255714D01*
X155452819Y-77303333D01*
X155357580Y-77636666D02*
X155357580Y-78303333D01*
X156357580Y-77874761D01*
X138771142Y-93972142D02*
X138818761Y-93924523D01*
X138866380Y-93781666D01*
X138866380Y-93686428D01*
X138818761Y-93543571D01*
X138723523Y-93448333D01*
X138628285Y-93400714D01*
X138437809Y-93353095D01*
X138294952Y-93353095D01*
X138104476Y-93400714D01*
X138009238Y-93448333D01*
X137914000Y-93543571D01*
X137866380Y-93686428D01*
X137866380Y-93781666D01*
X137914000Y-93924523D01*
X137961619Y-93972142D01*
X137961619Y-94353095D02*
X137914000Y-94400714D01*
X137866380Y-94495952D01*
X137866380Y-94734047D01*
X137914000Y-94829285D01*
X137961619Y-94876904D01*
X138056857Y-94924523D01*
X138152095Y-94924523D01*
X138294952Y-94876904D01*
X138866380Y-94305476D01*
X138866380Y-94924523D01*
X137866380Y-95543571D02*
X137866380Y-95638809D01*
X137914000Y-95734047D01*
X137961619Y-95781666D01*
X138056857Y-95829285D01*
X138247333Y-95876904D01*
X138485428Y-95876904D01*
X138675904Y-95829285D01*
X138771142Y-95781666D01*
X138818761Y-95734047D01*
X138866380Y-95638809D01*
X138866380Y-95543571D01*
X138818761Y-95448333D01*
X138771142Y-95400714D01*
X138675904Y-95353095D01*
X138485428Y-95305476D01*
X138247333Y-95305476D01*
X138056857Y-95353095D01*
X137961619Y-95400714D01*
X137914000Y-95448333D01*
X137866380Y-95543571D01*
X139409419Y-67875161D02*
X139361800Y-67779923D01*
X139266561Y-67684685D01*
X139123704Y-67541828D01*
X139076085Y-67446590D01*
X139076085Y-67351352D01*
X139314180Y-67398971D02*
X139266561Y-67303733D01*
X139171323Y-67208495D01*
X138980847Y-67160876D01*
X138647514Y-67160876D01*
X138457038Y-67208495D01*
X138361800Y-67303733D01*
X138314180Y-67398971D01*
X138314180Y-67589447D01*
X138361800Y-67684685D01*
X138457038Y-67779923D01*
X138647514Y-67827542D01*
X138980847Y-67827542D01*
X139171323Y-67779923D01*
X139266561Y-67684685D01*
X139314180Y-67589447D01*
X139314180Y-67398971D01*
X138314180Y-68160876D02*
X138314180Y-68779923D01*
X138695133Y-68446590D01*
X138695133Y-68589447D01*
X138742752Y-68684685D01*
X138790371Y-68732304D01*
X138885609Y-68779923D01*
X139123704Y-68779923D01*
X139218942Y-68732304D01*
X139266561Y-68684685D01*
X139314180Y-68589447D01*
X139314180Y-68303733D01*
X139266561Y-68208495D01*
X139218942Y-68160876D01*
X155747980Y-79157533D02*
X155271790Y-78824200D01*
X155747980Y-78586104D02*
X154747980Y-78586104D01*
X154747980Y-78967057D01*
X154795600Y-79062295D01*
X154843219Y-79109914D01*
X154938457Y-79157533D01*
X155081314Y-79157533D01*
X155176552Y-79109914D01*
X155224171Y-79062295D01*
X155271790Y-78967057D01*
X155271790Y-78586104D01*
X154747980Y-80062295D02*
X154747980Y-79586104D01*
X155224171Y-79538485D01*
X155176552Y-79586104D01*
X155128933Y-79681342D01*
X155128933Y-79919438D01*
X155176552Y-80014676D01*
X155224171Y-80062295D01*
X155319409Y-80109914D01*
X155557504Y-80109914D01*
X155652742Y-80062295D01*
X155700361Y-80014676D01*
X155747980Y-79919438D01*
X155747980Y-79681342D01*
X155700361Y-79586104D01*
X155652742Y-79538485D01*
X137040857Y-78760580D02*
X137374190Y-78284390D01*
X137612285Y-78760580D02*
X137612285Y-77760580D01*
X137231333Y-77760580D01*
X137136095Y-77808200D01*
X137088476Y-77855819D01*
X137040857Y-77951057D01*
X137040857Y-78093914D01*
X137088476Y-78189152D01*
X137136095Y-78236771D01*
X137231333Y-78284390D01*
X137612285Y-78284390D01*
X136088476Y-78760580D02*
X136659904Y-78760580D01*
X136374190Y-78760580D02*
X136374190Y-77760580D01*
X136469428Y-77903438D01*
X136564666Y-77998676D01*
X136659904Y-78046295D01*
X135707523Y-77855819D02*
X135659904Y-77808200D01*
X135564666Y-77760580D01*
X135326571Y-77760580D01*
X135231333Y-77808200D01*
X135183714Y-77855819D01*
X135136095Y-77951057D01*
X135136095Y-78046295D01*
X135183714Y-78189152D01*
X135755142Y-78760580D01*
X135136095Y-78760580D01*
X126586400Y-68804600D02*
X126619733Y-68837933D01*
X126719733Y-68871266D01*
X126786400Y-68871266D01*
X126886400Y-68837933D01*
X126953066Y-68771266D01*
X126986400Y-68704600D01*
X127019733Y-68571266D01*
X127019733Y-68471266D01*
X126986400Y-68337933D01*
X126953066Y-68271266D01*
X126886400Y-68204600D01*
X126786400Y-68171266D01*
X126719733Y-68171266D01*
X126619733Y-68204600D01*
X126586400Y-68237933D01*
X125919733Y-68871266D02*
X126319733Y-68871266D01*
X126119733Y-68871266D02*
X126119733Y-68171266D01*
X126186400Y-68271266D01*
X126253066Y-68337933D01*
X126319733Y-68371266D01*
X125319733Y-68404600D02*
X125319733Y-68871266D01*
X125486400Y-68137933D02*
X125653066Y-68637933D01*
X125219733Y-68637933D01*
X124620257Y-67336942D02*
X124667876Y-67384561D01*
X124810733Y-67432180D01*
X124905971Y-67432180D01*
X125048828Y-67384561D01*
X125144066Y-67289323D01*
X125191685Y-67194085D01*
X125239304Y-67003609D01*
X125239304Y-66860752D01*
X125191685Y-66670276D01*
X125144066Y-66575038D01*
X125048828Y-66479800D01*
X124905971Y-66432180D01*
X124810733Y-66432180D01*
X124667876Y-66479800D01*
X124620257Y-66527419D01*
X123667876Y-67432180D02*
X124239304Y-67432180D01*
X123953590Y-67432180D02*
X123953590Y-66432180D01*
X124048828Y-66575038D01*
X124144066Y-66670276D01*
X124239304Y-66717895D01*
X122763114Y-66432180D02*
X123239304Y-66432180D01*
X123286923Y-66908371D01*
X123239304Y-66860752D01*
X123144066Y-66813133D01*
X122905971Y-66813133D01*
X122810733Y-66860752D01*
X122763114Y-66908371D01*
X122715495Y-67003609D01*
X122715495Y-67241704D01*
X122763114Y-67336942D01*
X122810733Y-67384561D01*
X122905971Y-67432180D01*
X123144066Y-67432180D01*
X123239304Y-67384561D01*
X123286923Y-67336942D01*
X171573723Y-98766380D02*
X171573723Y-99480666D01*
X171621342Y-99623523D01*
X171716580Y-99718761D01*
X171859438Y-99766380D01*
X171954676Y-99766380D01*
X170573723Y-99766380D02*
X171145152Y-99766380D01*
X170859438Y-99766380D02*
X170859438Y-98766380D01*
X170954676Y-98909238D01*
X171049914Y-99004476D01*
X171145152Y-99052095D01*
X169954676Y-98766380D02*
X169859438Y-98766380D01*
X169764200Y-98814000D01*
X169716580Y-98861619D01*
X169668961Y-98956857D01*
X169621342Y-99147333D01*
X169621342Y-99385428D01*
X169668961Y-99575904D01*
X169716580Y-99671142D01*
X169764200Y-99718761D01*
X169859438Y-99766380D01*
X169954676Y-99766380D01*
X170049914Y-99718761D01*
X170097533Y-99671142D01*
X170145152Y-99575904D01*
X170192771Y-99385428D01*
X170192771Y-99147333D01*
X170145152Y-98956857D01*
X170097533Y-98861619D01*
X170049914Y-98814000D01*
X169954676Y-98766380D01*
X163647380Y-104786133D02*
X163171190Y-104452800D01*
X163647380Y-104214704D02*
X162647380Y-104214704D01*
X162647380Y-104595657D01*
X162695000Y-104690895D01*
X162742619Y-104738514D01*
X162837857Y-104786133D01*
X162980714Y-104786133D01*
X163075952Y-104738514D01*
X163123571Y-104690895D01*
X163171190Y-104595657D01*
X163171190Y-104214704D01*
X162742619Y-105167085D02*
X162695000Y-105214704D01*
X162647380Y-105309942D01*
X162647380Y-105548038D01*
X162695000Y-105643276D01*
X162742619Y-105690895D01*
X162837857Y-105738514D01*
X162933095Y-105738514D01*
X163075952Y-105690895D01*
X163647380Y-105119466D01*
X163647380Y-105738514D01*
X160828800Y-75013400D02*
X160862133Y-74980066D01*
X160895466Y-74880066D01*
X160895466Y-74813400D01*
X160862133Y-74713400D01*
X160795466Y-74646733D01*
X160728800Y-74613400D01*
X160595466Y-74580066D01*
X160495466Y-74580066D01*
X160362133Y-74613400D01*
X160295466Y-74646733D01*
X160228800Y-74713400D01*
X160195466Y-74813400D01*
X160195466Y-74880066D01*
X160228800Y-74980066D01*
X160262133Y-75013400D01*
X160895466Y-75680066D02*
X160895466Y-75280066D01*
X160895466Y-75480066D02*
X160195466Y-75480066D01*
X160295466Y-75413400D01*
X160362133Y-75346733D01*
X160395466Y-75280066D01*
X160262133Y-75946733D02*
X160228800Y-75980066D01*
X160195466Y-76046733D01*
X160195466Y-76213400D01*
X160228800Y-76280066D01*
X160262133Y-76313400D01*
X160328800Y-76346733D01*
X160395466Y-76346733D01*
X160495466Y-76313400D01*
X160895466Y-75913400D01*
X160895466Y-76346733D01*
X120161038Y-101969819D02*
X120256276Y-101922200D01*
X120351514Y-101826961D01*
X120494371Y-101684104D01*
X120589609Y-101636485D01*
X120684847Y-101636485D01*
X120637228Y-101874580D02*
X120732466Y-101826961D01*
X120827704Y-101731723D01*
X120875323Y-101541247D01*
X120875323Y-101207914D01*
X120827704Y-101017438D01*
X120732466Y-100922200D01*
X120637228Y-100874580D01*
X120446752Y-100874580D01*
X120351514Y-100922200D01*
X120256276Y-101017438D01*
X120208657Y-101207914D01*
X120208657Y-101541247D01*
X120256276Y-101731723D01*
X120351514Y-101826961D01*
X120446752Y-101874580D01*
X120637228Y-101874580D01*
X119256276Y-101874580D02*
X119827704Y-101874580D01*
X119541990Y-101874580D02*
X119541990Y-100874580D01*
X119637228Y-101017438D01*
X119732466Y-101112676D01*
X119827704Y-101160295D01*
X143974887Y-105192010D02*
X143974887Y-105124667D01*
X143907543Y-104989980D01*
X143840200Y-104922636D01*
X143705512Y-104855293D01*
X143570825Y-104855293D01*
X143469810Y-104888964D01*
X143301451Y-104989980D01*
X143200436Y-105090995D01*
X143099421Y-105259354D01*
X143065749Y-105360369D01*
X143065749Y-105495056D01*
X143133093Y-105629743D01*
X143200436Y-105697087D01*
X143335123Y-105764430D01*
X143402467Y-105764430D01*
X144715665Y-105798102D02*
X144311604Y-105394041D01*
X144513635Y-105596071D02*
X143806528Y-106303178D01*
X143840200Y-106134819D01*
X143840200Y-106000132D01*
X143806528Y-105899117D01*
X123640000Y-87006866D02*
X123873333Y-86673533D01*
X124040000Y-87006866D02*
X124040000Y-86306866D01*
X123773333Y-86306866D01*
X123706666Y-86340200D01*
X123673333Y-86373533D01*
X123640000Y-86440200D01*
X123640000Y-86540200D01*
X123673333Y-86606866D01*
X123706666Y-86640200D01*
X123773333Y-86673533D01*
X124040000Y-86673533D01*
X122973333Y-87006866D02*
X123373333Y-87006866D01*
X123173333Y-87006866D02*
X123173333Y-86306866D01*
X123240000Y-86406866D01*
X123306666Y-86473533D01*
X123373333Y-86506866D01*
X122540000Y-86306866D02*
X122473333Y-86306866D01*
X122406666Y-86340200D01*
X122373333Y-86373533D01*
X122340000Y-86440200D01*
X122306666Y-86573533D01*
X122306666Y-86740200D01*
X122340000Y-86873533D01*
X122373333Y-86940200D01*
X122406666Y-86973533D01*
X122473333Y-87006866D01*
X122540000Y-87006866D01*
X122606666Y-86973533D01*
X122640000Y-86940200D01*
X122673333Y-86873533D01*
X122706666Y-86740200D01*
X122706666Y-86573533D01*
X122673333Y-86440200D01*
X122640000Y-86373533D01*
X122606666Y-86340200D01*
X122540000Y-86306866D01*
X146369881Y-99468446D02*
X146706599Y-99805164D01*
X146235194Y-98862355D02*
X146369881Y-99468446D01*
X145763790Y-99333759D01*
X145864805Y-100646957D02*
X146268866Y-100242896D01*
X146066835Y-100444927D02*
X145359729Y-99737820D01*
X145528087Y-99771492D01*
X145662774Y-99771492D01*
X145763790Y-99737820D01*
X128412066Y-68820466D02*
X128645400Y-68487133D01*
X128812066Y-68820466D02*
X128812066Y-68120466D01*
X128545400Y-68120466D01*
X128478733Y-68153800D01*
X128445400Y-68187133D01*
X128412066Y-68253800D01*
X128412066Y-68353800D01*
X128445400Y-68420466D01*
X128478733Y-68453800D01*
X128545400Y-68487133D01*
X128812066Y-68487133D01*
X128012066Y-68420466D02*
X128078733Y-68387133D01*
X128112066Y-68353800D01*
X128145400Y-68287133D01*
X128145400Y-68253800D01*
X128112066Y-68187133D01*
X128078733Y-68153800D01*
X128012066Y-68120466D01*
X127878733Y-68120466D01*
X127812066Y-68153800D01*
X127778733Y-68187133D01*
X127745400Y-68253800D01*
X127745400Y-68287133D01*
X127778733Y-68353800D01*
X127812066Y-68387133D01*
X127878733Y-68420466D01*
X128012066Y-68420466D01*
X128078733Y-68453800D01*
X128112066Y-68487133D01*
X128145400Y-68553800D01*
X128145400Y-68687133D01*
X128112066Y-68753800D01*
X128078733Y-68787133D01*
X128012066Y-68820466D01*
X127878733Y-68820466D01*
X127812066Y-68787133D01*
X127778733Y-68753800D01*
X127745400Y-68687133D01*
X127745400Y-68553800D01*
X127778733Y-68487133D01*
X127812066Y-68453800D01*
X127878733Y-68420466D01*
X163545780Y-102220733D02*
X163069590Y-101887400D01*
X163545780Y-101649304D02*
X162545780Y-101649304D01*
X162545780Y-102030257D01*
X162593400Y-102125495D01*
X162641019Y-102173114D01*
X162736257Y-102220733D01*
X162879114Y-102220733D01*
X162974352Y-102173114D01*
X163021971Y-102125495D01*
X163069590Y-102030257D01*
X163069590Y-101649304D01*
X162545780Y-102554066D02*
X162545780Y-103173114D01*
X162926733Y-102839780D01*
X162926733Y-102982638D01*
X162974352Y-103077876D01*
X163021971Y-103125495D01*
X163117209Y-103173114D01*
X163355304Y-103173114D01*
X163450542Y-103125495D01*
X163498161Y-103077876D01*
X163545780Y-102982638D01*
X163545780Y-102696923D01*
X163498161Y-102601685D01*
X163450542Y-102554066D01*
X157360857Y-85167742D02*
X157408476Y-85215361D01*
X157551333Y-85262980D01*
X157646571Y-85262980D01*
X157789428Y-85215361D01*
X157884666Y-85120123D01*
X157932285Y-85024885D01*
X157979904Y-84834409D01*
X157979904Y-84691552D01*
X157932285Y-84501076D01*
X157884666Y-84405838D01*
X157789428Y-84310600D01*
X157646571Y-84262980D01*
X157551333Y-84262980D01*
X157408476Y-84310600D01*
X157360857Y-84358219D01*
X156979904Y-84358219D02*
X156932285Y-84310600D01*
X156837047Y-84262980D01*
X156598952Y-84262980D01*
X156503714Y-84310600D01*
X156456095Y-84358219D01*
X156408476Y-84453457D01*
X156408476Y-84548695D01*
X156456095Y-84691552D01*
X157027523Y-85262980D01*
X156408476Y-85262980D01*
X155456095Y-85262980D02*
X156027523Y-85262980D01*
X155741809Y-85262980D02*
X155741809Y-84262980D01*
X155837047Y-84405838D01*
X155932285Y-84501076D01*
X156027523Y-84548695D01*
X131833857Y-78709780D02*
X132167190Y-78233590D01*
X132405285Y-78709780D02*
X132405285Y-77709780D01*
X132024333Y-77709780D01*
X131929095Y-77757400D01*
X131881476Y-77805019D01*
X131833857Y-77900257D01*
X131833857Y-78043114D01*
X131881476Y-78138352D01*
X131929095Y-78185971D01*
X132024333Y-78233590D01*
X132405285Y-78233590D01*
X130881476Y-78709780D02*
X131452904Y-78709780D01*
X131167190Y-78709780D02*
X131167190Y-77709780D01*
X131262428Y-77852638D01*
X131357666Y-77947876D01*
X131452904Y-77995495D01*
X129929095Y-78709780D02*
X130500523Y-78709780D01*
X130214809Y-78709780D02*
X130214809Y-77709780D01*
X130310047Y-77852638D01*
X130405285Y-77947876D01*
X130500523Y-77995495D01*
X148869304Y-89165180D02*
X148869304Y-89974704D01*
X148821685Y-90069942D01*
X148774066Y-90117561D01*
X148678828Y-90165180D01*
X148488352Y-90165180D01*
X148393114Y-90117561D01*
X148345495Y-90069942D01*
X148297876Y-89974704D01*
X148297876Y-89165180D01*
X147297876Y-90165180D02*
X147869304Y-90165180D01*
X147583590Y-90165180D02*
X147583590Y-89165180D01*
X147678828Y-89308038D01*
X147774066Y-89403276D01*
X147869304Y-89450895D01*
X156602866Y-73543333D02*
X156269533Y-73310000D01*
X156602866Y-73143333D02*
X155902866Y-73143333D01*
X155902866Y-73410000D01*
X155936200Y-73476666D01*
X155969533Y-73510000D01*
X156036200Y-73543333D01*
X156136200Y-73543333D01*
X156202866Y-73510000D01*
X156236200Y-73476666D01*
X156269533Y-73410000D01*
X156269533Y-73143333D01*
X156136200Y-74143333D02*
X156602866Y-74143333D01*
X155869533Y-73976666D02*
X156369533Y-73810000D01*
X156369533Y-74243333D01*
D11*
X149371267Y-83060000D02*
X149078733Y-83060000D01*
X149371267Y-82040000D02*
X149078733Y-82040000D01*
X158656752Y-70839000D02*
X158134248Y-70839000D01*
X158656752Y-69369000D02*
X158134248Y-69369000D01*
X158630252Y-68680000D02*
X158107748Y-68680000D01*
X158630252Y-67210000D02*
X158107748Y-67210000D01*
X141213100Y-108838276D02*
X141213100Y-109347724D01*
X140168100Y-108838276D02*
X140168100Y-109347724D01*
X125983276Y-75198500D02*
X126492724Y-75198500D01*
X125983276Y-74153500D02*
X126492724Y-74153500D01*
X122479524Y-82335900D02*
X121970076Y-82335900D01*
X122479524Y-81290900D02*
X121970076Y-81290900D01*
X160315000Y-80661000D02*
X156465000Y-80661000D01*
X160315000Y-80661000D02*
X160315000Y-82661000D01*
X160315000Y-82661000D02*
X156465000Y-82661000D01*
X151516748Y-98779000D02*
X152039252Y-98779000D01*
X151516748Y-97309000D02*
X152039252Y-97309000D01*
X118718424Y-81316300D02*
X118208976Y-81316300D01*
X118718424Y-82361300D02*
X118208976Y-82361300D01*
X151477990Y-104590457D02*
X151847457Y-104220990D01*
X150438543Y-103551010D02*
X150808010Y-103181543D01*
X125903000Y-83055000D02*
X125303000Y-83055000D01*
X124603000Y-83755000D02*
X124603000Y-85155000D01*
X126603000Y-85155000D02*
X126603000Y-83755000D01*
X125303000Y-85855000D02*
X125903000Y-85855000D01*
X126603000Y-83755000D02*
G75*
G03*
X125903000Y-83055000I-699999J1D01*
G01*
X125903000Y-85855000D02*
G75*
G03*
X126603000Y-85155000I0J700000D01*
G01*
X124603000Y-85155000D02*
G75*
G03*
X125303000Y-85855000I700000J0D01*
G01*
X125303000Y-83055000D02*
G75*
G03*
X124603000Y-83755000I-1J-699999D01*
G01*
X158541767Y-71499000D02*
X158249233Y-71499000D01*
X158541767Y-72519000D02*
X158249233Y-72519000D01*
X122299000Y-73096000D02*
X120839000Y-73096000D01*
X122299000Y-76256000D02*
X122299000Y-75326000D01*
X122299000Y-76256000D02*
X119139000Y-76256000D01*
X122299000Y-73096000D02*
X122299000Y-74026000D01*
X158630252Y-78205000D02*
X158107748Y-78205000D01*
X158630252Y-76735000D02*
X158107748Y-76735000D01*
X140829000Y-94353748D02*
X140829000Y-94876252D01*
X139359000Y-94353748D02*
X139359000Y-94876252D01*
X149472000Y-77717000D02*
X150972000Y-77717000D01*
X150972000Y-77717000D02*
X150972000Y-75907000D01*
X149472000Y-67317000D02*
X150972000Y-67317000D01*
X150972000Y-67317000D02*
X150972000Y-69127000D01*
X150972000Y-75907000D02*
X152072000Y-75907000D01*
X150972000Y-69127000D02*
X156097000Y-69127000D01*
X157352276Y-79897500D02*
X157861724Y-79897500D01*
X157352276Y-78852500D02*
X157861724Y-78852500D01*
X135875500Y-80899724D02*
X135875500Y-80390276D01*
X136920500Y-80899724D02*
X136920500Y-80390276D01*
X126544800Y-70809067D02*
X126544800Y-70516533D01*
X125524800Y-70809067D02*
X125524800Y-70516533D01*
X124862000Y-70815252D02*
X124862000Y-69392748D01*
X123042000Y-70815252D02*
X123042000Y-69392748D01*
X170410000Y-108458000D02*
X170410000Y-108078000D01*
X170410000Y-100838000D02*
X170410000Y-101218000D01*
X170410000Y-108458000D02*
X172180000Y-108458000D01*
X174720000Y-100838000D02*
X174460000Y-100838000D01*
X174460000Y-108458000D02*
X174720000Y-108458000D01*
X172180000Y-100838000D02*
X170410000Y-100838000D01*
X167097064Y-103992000D02*
X165642936Y-103992000D01*
X167097064Y-105812000D02*
X165642936Y-105812000D01*
X158515267Y-75948000D02*
X158222733Y-75948000D01*
X158515267Y-74928000D02*
X158222733Y-74928000D01*
X122402000Y-102306000D02*
X120942000Y-102306000D01*
X122402000Y-105466000D02*
X122402000Y-104536000D01*
X122402000Y-105466000D02*
X119242000Y-105466000D01*
X122402000Y-102306000D02*
X122402000Y-103236000D01*
X145779834Y-104087387D02*
X145410367Y-103717920D01*
X144740387Y-105126834D02*
X144370920Y-104757367D01*
X122692900Y-84735124D02*
X122692900Y-84225676D01*
X123737900Y-84735124D02*
X123737900Y-84225676D01*
X144636689Y-102232676D02*
X148455066Y-98414299D01*
X147818670Y-105414657D02*
X144636689Y-102232676D01*
X129046500Y-70866724D02*
X129046500Y-70357276D01*
X128001500Y-70866724D02*
X128001500Y-70357276D01*
X167097064Y-103272000D02*
X165642936Y-103272000D01*
X167097064Y-101452000D02*
X165642936Y-101452000D01*
X156456748Y-87247400D02*
X156979252Y-87247400D01*
X156456748Y-85777400D02*
X156979252Y-85777400D01*
X131713500Y-80899724D02*
X131713500Y-80390276D01*
X130668500Y-80899724D02*
X130668500Y-80390276D01*
D10*
X142793000Y-95345000D02*
X142793000Y-94670000D01*
X153143000Y-85570000D02*
X154418000Y-85570000D01*
X153143000Y-95345000D02*
X153143000Y-94670000D01*
X153143000Y-95345000D02*
X152468000Y-95345000D01*
X142793000Y-95345000D02*
X143468000Y-95345000D01*
X142793000Y-84995000D02*
X142793000Y-85670000D01*
X153143000Y-84995000D02*
X152468000Y-84995000D01*
X153143000Y-84995000D02*
X153143000Y-85570000D01*
X142793000Y-84995000D02*
X143468000Y-84995000D01*
D11*
X158140776Y-73137500D02*
X158650224Y-73137500D01*
X158140776Y-74182500D02*
X158650224Y-74182500D01*
M02*
